G04*
G04 #@! TF.GenerationSoftware,Altium Limited,Altium Designer,19.1.9 (167)*
G04*
G04 Layer_Color=32896*
%FSLAX44Y44*%
%MOMM*%
G71*
G01*
G75*
%ADD10C,0.1200*%
%ADD11C,0.2000*%
%ADD13C,0.1016*%
%ADD14C,0.1000*%
%ADD16C,0.2540*%
%ADD18C,0.1500*%
%ADD77C,0.0889*%
D10*
X15264Y3000D02*
G03*
X13740Y1476I0J-1524D01*
G01*
Y-1476D02*
G03*
X15264Y-3000I1524J0D01*
G01*
X24250D02*
G03*
X25774Y-1476I0J1524D01*
G01*
Y1476D02*
G03*
X24250Y3000I-1524J0D01*
G01*
X37500Y37736D02*
G03*
X35976Y39260I-1524J0D01*
G01*
X33024D02*
G03*
X31500Y37736I0J-1524D01*
G01*
Y28750D02*
G03*
X33024Y27226I1524J0D01*
G01*
X35976D02*
G03*
X37500Y28750I0J1524D01*
G01*
X39240Y-1476D02*
G03*
X40764Y-3000I1524J0D01*
G01*
Y3000D02*
G03*
X39240Y1476I0J-1524D01*
G01*
X51274D02*
G03*
X49750Y3000I-1524J0D01*
G01*
Y-3000D02*
G03*
X51274Y-1476I0J1524D01*
G01*
X13740D02*
Y1476D01*
X15264Y-3000D02*
X18345D01*
X15264Y3000D02*
X18345D01*
X21169D02*
X24250D01*
X21169Y-3000D02*
X24250D01*
X25774Y-1476D02*
Y1476D01*
X33024Y39260D02*
X35976D01*
X31500Y34655D02*
Y37736D01*
X37500Y34655D02*
Y37736D01*
Y28750D02*
Y31831D01*
X31500Y28750D02*
Y31831D01*
X33024Y27226D02*
X35976D01*
X37500Y34578D02*
Y38416D01*
X43500D01*
Y34578D02*
Y38416D01*
X37500Y27415D02*
Y31254D01*
Y27415D02*
X43500D01*
Y31254D01*
X34246Y3000D02*
X38084D01*
Y-3000D02*
Y3000D01*
X34246Y-3000D02*
X38084D01*
X27085Y3000D02*
X30923D01*
X27085Y-3000D02*
Y3000D01*
Y-3000D02*
X30923D01*
X39240Y-1476D02*
Y1476D01*
X40764Y3000D02*
X43845D01*
X40764Y-3000D02*
X43845D01*
X46669D02*
X49750D01*
X46669Y3000D02*
X49750D01*
X51274Y-1476D02*
Y1476D01*
D11*
X35582Y134706D02*
G03*
X35582Y134706I-2000J0D01*
G01*
D13*
X118000Y50000D02*
X125000Y50000D01*
X118000Y38000D02*
X125000D01*
X125000Y42731D02*
X125000Y38000D01*
X125001Y45270D02*
X125001Y50001D01*
X117999Y42730D02*
X117999Y37999D01*
X118000Y45269D02*
Y50000D01*
X51501Y5501D02*
X58501Y5501D01*
X51501Y17501D02*
X58501Y17501D01*
X51501Y12770D02*
X51501Y17501D01*
X51500Y5500D02*
X51500Y10231D01*
X58502Y12771D02*
X58502Y17502D01*
X58501Y5501D02*
X58501Y10232D01*
D14*
X36884Y51648D02*
Y56474D01*
Y51648D02*
X41710D01*
X111814Y51394D02*
X117148D01*
Y56220D01*
X111814Y131404D02*
X116894Y131404D01*
Y126578D02*
Y131404D01*
X36884Y126705D02*
Y131531D01*
X41837D01*
X43742Y124800D02*
X43742Y57998D01*
X110290D01*
Y124800D01*
X43742Y124800D02*
X110290Y124800D01*
D16*
X27850Y14340D02*
Y34660D01*
X2450Y14340D02*
Y34660D01*
X15150D01*
Y14340D02*
X27850D01*
D18*
X31001Y26501D02*
X50001D01*
X31001Y26501D02*
X31001Y7501D01*
X50001Y7501D02*
Y26501D01*
X31001Y7501D02*
X50001D01*
X17071Y5000D02*
Y10142D01*
X10929Y48142D02*
Y43000D01*
X13500Y45571D02*
X8358D01*
X123001Y79000D02*
X129000D01*
X123001D02*
Y76429D01*
X123287Y75572D01*
X123573Y75286D01*
X124144Y75001D01*
X124715D01*
X125287Y75286D01*
X125572Y75572D01*
X125858Y76429D01*
Y79000D01*
Y77000D02*
X129000Y75001D01*
X123858Y69659D02*
X123287Y70230D01*
X123001Y71087D01*
Y72230D01*
X123287Y73087D01*
X123858Y73658D01*
X124430D01*
X125001Y73373D01*
X125287Y73087D01*
X125572Y72516D01*
X126144Y70802D01*
X126429Y70230D01*
X126715Y69945D01*
X127286Y69659D01*
X128143D01*
X128714Y70230D01*
X129000Y71087D01*
Y72230D01*
X128714Y73087D01*
X128143Y73658D01*
X123001Y66317D02*
X129000D01*
X123001Y68317D02*
Y64317D01*
Y96000D02*
X129000D01*
X123001D02*
Y94000D01*
X123287Y93144D01*
X123858Y92572D01*
X124430Y92287D01*
X125287Y92001D01*
X126715D01*
X127572Y92287D01*
X128143Y92572D01*
X128714Y93144D01*
X129000Y94000D01*
Y96000D01*
X123001Y90658D02*
X129000D01*
X123001Y87688D02*
X123287Y88259D01*
X123858Y88830D01*
X124430Y89116D01*
X125287Y89401D01*
X126715D01*
X127572Y89116D01*
X128143Y88830D01*
X128714Y88259D01*
X129000Y87688D01*
Y86545D01*
X128714Y85974D01*
X128143Y85402D01*
X127572Y85117D01*
X126715Y84831D01*
X125287D01*
X124430Y85117D01*
X123858Y85402D01*
X123287Y85974D01*
X123001Y86545D01*
Y87688D01*
X124430Y111715D02*
X123858Y112001D01*
X123287Y112572D01*
X123001Y113144D01*
Y114286D01*
X123287Y114857D01*
X123858Y115429D01*
X124430Y115714D01*
X125287Y116000D01*
X126715D01*
X127572Y115714D01*
X128143Y115429D01*
X128714Y114857D01*
X129000Y114286D01*
Y113144D01*
X128714Y112572D01*
X128143Y112001D01*
X127572Y111715D01*
X123001Y110030D02*
X129000D01*
Y106602D01*
X123001Y105945D02*
X129000D01*
X123001Y101946D02*
X127000Y105945D01*
X125572Y104517D02*
X129000Y101946D01*
D77*
X8100Y56500D02*
X25900D01*
X8100D02*
Y123500D01*
X25900Y123500D01*
X25900Y56500D02*
Y123500D01*
M02*
