G04*
G04 #@! TF.GenerationSoftware,Altium Limited,Altium Designer,19.1.9 (167)*
G04*
G04 Layer_Physical_Order=6*
G04 Layer_Color=16711680*
%FSLAX44Y44*%
%MOMM*%
G71*
G01*
G75*
%ADD11C,0.2000*%
%ADD13C,0.1016*%
%ADD15C,0.1524*%
%ADD16C,0.2540*%
%ADD19R,0.3000X0.2500*%
%ADD26R,0.3240X0.3684*%
%ADD55R,0.3684X0.3240*%
%ADD61O,0.5500X0.3500*%
%ADD62C,0.2500*%
%ADD63C,0.3000*%
%ADD64C,0.4000*%
%ADD65R,0.7400X2.1000*%
%ADD66C,0.2800*%
%ADD67R,0.3240X0.3031*%
%ADD68R,0.3031X0.3240*%
G04:AMPARAMS|DCode=69|XSize=0.25mm|YSize=0.9mm|CornerRadius=0.0625mm|HoleSize=0mm|Usage=FLASHONLY|Rotation=180.000|XOffset=0mm|YOffset=0mm|HoleType=Round|Shape=RoundedRectangle|*
%AMROUNDEDRECTD69*
21,1,0.2500,0.7750,0,0,180.0*
21,1,0.1250,0.9000,0,0,180.0*
1,1,0.1250,-0.0625,0.3875*
1,1,0.1250,0.0625,0.3875*
1,1,0.1250,0.0625,-0.3875*
1,1,0.1250,-0.0625,-0.3875*
%
%ADD69ROUNDEDRECTD69*%
G04:AMPARAMS|DCode=70|XSize=0.25mm|YSize=0.9mm|CornerRadius=0.0625mm|HoleSize=0mm|Usage=FLASHONLY|Rotation=90.000|XOffset=0mm|YOffset=0mm|HoleType=Round|Shape=RoundedRectangle|*
%AMROUNDEDRECTD70*
21,1,0.2500,0.7750,0,0,90.0*
21,1,0.1250,0.9000,0,0,90.0*
1,1,0.1250,0.3875,0.0625*
1,1,0.1250,0.3875,-0.0625*
1,1,0.1250,-0.3875,-0.0625*
1,1,0.1250,-0.3875,0.0625*
%
%ADD70ROUNDEDRECTD70*%
%ADD71R,1.5387X0.9512*%
G36*
X108266Y132189D02*
X108344Y132194D01*
X108422Y132207D01*
X108489Y132221D01*
X108542Y132238D01*
X108583Y132257D01*
X108611Y132279D01*
Y130529D01*
X108583Y130550D01*
X108542Y130570D01*
X108489Y130587D01*
X108422Y130601D01*
X108344Y130614D01*
X108266Y130621D01*
Y129880D01*
X108251Y130025D01*
X108204Y130154D01*
X108126Y130269D01*
X108017Y130368D01*
X107877Y130451D01*
X107706Y130520D01*
X107504Y130573D01*
X107271Y130611D01*
X107007Y130634D01*
X107004Y130634D01*
X107001Y130634D01*
X106737Y130611D01*
X106504Y130573D01*
X106302Y130520D01*
X106131Y130451D01*
X105991Y130368D01*
X105882Y130269D01*
X105804Y130154D01*
X105758Y130025D01*
X105742Y129880D01*
Y132928D01*
X105758Y132783D01*
X105804Y132654D01*
X105882Y132539D01*
X105991Y132440D01*
X106131Y132357D01*
X106302Y132288D01*
X106504Y132234D01*
X106737Y132196D01*
X107001Y132174D01*
X107004Y132174D01*
X107007Y132174D01*
X107271Y132196D01*
X107504Y132234D01*
X107706Y132288D01*
X107877Y132357D01*
X108017Y132440D01*
X108126Y132539D01*
X108204Y132654D01*
X108251Y132783D01*
X108266Y132928D01*
Y132189D01*
D02*
G37*
G36*
X43266Y130388D02*
X43256Y130484D01*
X43224Y130571D01*
X43172Y130647D01*
X43099Y130713D01*
X43004Y130769D01*
X42889Y130815D01*
X42753Y130850D01*
X42596Y130876D01*
X42418Y130891D01*
X42220Y130896D01*
Y131912D01*
X42418Y131917D01*
X42596Y131932D01*
X42753Y131958D01*
X42889Y131993D01*
X43004Y132039D01*
X43099Y132095D01*
X43172Y132161D01*
X43224Y132237D01*
X43256Y132323D01*
X43266Y132420D01*
Y130388D01*
D02*
G37*
G36*
X41736Y135396D02*
X41712Y135279D01*
Y133451D01*
X25660D01*
X24876Y133295D01*
X24212Y132852D01*
X24212Y132852D01*
X21816Y130456D01*
X21389Y130098D01*
X20025Y130241D01*
X19886Y130334D01*
X18716Y130567D01*
X17545Y130334D01*
X16760Y129809D01*
X10757D01*
X10757Y129809D01*
X9973Y129654D01*
X9309Y129210D01*
X6173Y126074D01*
X5000Y126560D01*
Y136666D01*
X40839D01*
X41736Y135396D01*
D02*
G37*
G36*
X17482Y126655D02*
X17396Y126769D01*
X17304Y126870D01*
X17205Y126960D01*
X17100Y127038D01*
X16989Y127104D01*
X16871Y127158D01*
X16747Y127200D01*
X16617Y127230D01*
X16480Y127248D01*
X16338Y127254D01*
X16524Y128270D01*
X16660Y128274D01*
X16796Y128288D01*
X16930Y128311D01*
X17063Y128343D01*
X17195Y128384D01*
X17326Y128434D01*
X17456Y128493D01*
X17584Y128561D01*
X17712Y128638D01*
X17838Y128724D01*
X17482Y126655D01*
D02*
G37*
G36*
X105581Y127057D02*
X105578Y127010D01*
X105567Y125543D01*
X104043Y125361D01*
X104037Y125641D01*
X103988Y126127D01*
X103944Y126334D01*
X103888Y126518D01*
X103820Y126677D01*
X103740Y126812D01*
X103647Y126923D01*
X103542Y127011D01*
X103424Y127074D01*
X105584D01*
X105581Y127057D01*
D02*
G37*
G36*
X32676Y122896D02*
X32664Y122990D01*
X32627Y123074D01*
X32567Y123149D01*
X32483Y123213D01*
X32374Y123268D01*
X32241Y123313D01*
X32085Y123347D01*
X31904Y123372D01*
X31699Y123387D01*
X31470Y123392D01*
Y124408D01*
X31699Y124413D01*
X32085Y124453D01*
X32241Y124487D01*
X32374Y124532D01*
X32483Y124587D01*
X32567Y124651D01*
X32627Y124726D01*
X32664Y124810D01*
X32676Y124904D01*
Y122896D01*
D02*
G37*
G36*
X117858Y122983D02*
X117838Y122942D01*
X117821Y122888D01*
X117807Y122822D01*
X117794Y122744D01*
X117787Y122666D01*
X118528D01*
X118383Y122650D01*
X118254Y122604D01*
X118139Y122526D01*
X118040Y122417D01*
X117956Y122277D01*
X117888Y122106D01*
X117835Y121904D01*
X117796Y121671D01*
X117774Y121407D01*
X117774Y121406D01*
X117774Y121405D01*
X117796Y121141D01*
X117835Y120908D01*
X117888Y120705D01*
X117956Y120535D01*
X118040Y120395D01*
X118139Y120286D01*
X118254Y120208D01*
X118383Y120162D01*
X118528Y120146D01*
X117774D01*
X117802Y119696D01*
X117813Y119645D01*
X117826Y119608D01*
X117840Y119584D01*
X116098Y119755D01*
X116125Y119785D01*
X116150Y119826D01*
X116172Y119881D01*
X116190Y119947D01*
X116206Y120026D01*
X116219Y120117D01*
X116221Y120146D01*
X115480D01*
X115625Y120162D01*
X115754Y120208D01*
X115869Y120286D01*
X115968Y120395D01*
X116052Y120535D01*
X116120Y120705D01*
X116173Y120908D01*
X116212Y121141D01*
X116234Y121405D01*
X116234Y121406D01*
X116234Y121407D01*
X116212Y121671D01*
X116173Y121904D01*
X116120Y122106D01*
X116052Y122277D01*
X115968Y122417D01*
X115869Y122526D01*
X115754Y122604D01*
X115625Y122650D01*
X115480Y122666D01*
X116219D01*
X116214Y122744D01*
X116201Y122822D01*
X116187Y122888D01*
X116170Y122942D01*
X116151Y122983D01*
X116129Y123011D01*
X117879D01*
X117858Y122983D01*
D02*
G37*
G36*
X112674Y117828D02*
X112643Y117865D01*
X112584Y117898D01*
X112496Y117927D01*
X112379Y117952D01*
X112233Y117973D01*
X111854Y118004D01*
X111289Y118017D01*
X110894Y117985D01*
X110815Y117970D01*
X110748Y117951D01*
X110694Y117929D01*
X110653Y117905D01*
X110623Y117878D01*
X109649Y118832D01*
X110452Y119619D01*
X110476Y119605D01*
X110513Y119593D01*
X110563Y119581D01*
X110627Y119572D01*
X110793Y119557D01*
X111100Y119547D01*
X111258Y119550D01*
X111760Y119585D01*
X111971Y119616D01*
X112156Y119656D01*
X112313Y119705D01*
X112443Y119762D01*
X112547Y119829D01*
X112624Y119904D01*
X112674Y119988D01*
Y117828D01*
D02*
G37*
G36*
X115987Y117908D02*
X115959Y117929D01*
X115918Y117949D01*
X115864Y117966D01*
X115798Y117980D01*
X115720Y117993D01*
X115525Y118011D01*
X115280Y118020D01*
X115139Y118021D01*
X115142Y119545D01*
X115283Y119546D01*
X115723Y119573D01*
X115801Y119586D01*
X115868Y119600D01*
X115921Y119617D01*
X115962Y119636D01*
X115990Y119658D01*
X115987Y117908D01*
D02*
G37*
G36*
X109649Y118832D02*
X108675Y117878D01*
X108646Y117905D01*
X108604Y117929D01*
X108550Y117951D01*
X108483Y117970D01*
X108405Y117985D01*
X107966Y118020D01*
X107825Y118021D01*
X108016Y119545D01*
X108158Y119546D01*
X108505Y119557D01*
X108671Y119572D01*
X108735Y119581D01*
X108785Y119593D01*
X108822Y119605D01*
X108847Y119619D01*
X109649Y118832D01*
D02*
G37*
G36*
X102598Y119605D02*
X102635Y119592D01*
X102686Y119581D01*
X102749Y119572D01*
X102915Y119557D01*
X103262Y119546D01*
X103404Y119545D01*
X103598Y118021D01*
X103458Y118020D01*
X103019Y117985D01*
X102940Y117970D01*
X102874Y117951D01*
X102820Y117929D01*
X102778Y117905D01*
X102749Y117877D01*
X102574Y119618D01*
X102598Y119605D01*
D02*
G37*
G36*
X32674Y117820D02*
X32634Y117891D01*
X32578Y117954D01*
X32504Y118010D01*
X32413Y118058D01*
X32304Y118099D01*
X32179Y118132D01*
X32036Y118159D01*
X31876Y118177D01*
X31698Y118188D01*
X31504Y118192D01*
X31470Y119208D01*
X31687Y119213D01*
X31881Y119228D01*
X32051Y119253D01*
X32199Y119287D01*
X32323Y119332D01*
X32423Y119387D01*
X32501Y119451D01*
X32555Y119526D01*
X32585Y119610D01*
X32593Y119704D01*
X32674Y117820D01*
D02*
G37*
G36*
X23413Y114795D02*
X23428Y114616D01*
X23453Y114459D01*
X23488Y114323D01*
X23533Y114207D01*
X23589Y114113D01*
X23654Y114039D01*
X23729Y113987D01*
X23815Y113956D01*
X23910Y113945D01*
X21890D01*
X21985Y113956D01*
X22071Y113987D01*
X22146Y114039D01*
X22211Y114113D01*
X22266Y114207D01*
X22312Y114323D01*
X22347Y114459D01*
X22372Y114616D01*
X22387Y114795D01*
X22392Y114994D01*
X23408D01*
X23413Y114795D01*
D02*
G37*
G36*
X88418Y111079D02*
X88500Y110974D01*
X88590Y110881D01*
X88687Y110801D01*
X88793Y110733D01*
X88906Y110678D01*
X89026Y110635D01*
X89155Y110604D01*
X89291Y110585D01*
X89436Y110579D01*
X89150Y109563D01*
X89016Y109559D01*
X88882Y109547D01*
X88748Y109527D01*
X88614Y109499D01*
X88480Y109463D01*
X88346Y109419D01*
X88212Y109368D01*
X87945Y109240D01*
X87812Y109164D01*
X88343Y111196D01*
X88418Y111079D01*
D02*
G37*
G36*
X96419Y110287D02*
X96432Y110143D01*
X96456Y110004D01*
X96490Y109870D01*
X96535Y109741D01*
X96589Y109618D01*
X96654Y109500D01*
X96729Y109387D01*
X96814Y109278D01*
X96909Y109176D01*
X96190Y108457D01*
X96088Y108552D01*
X95979Y108637D01*
X95866Y108712D01*
X95748Y108777D01*
X95625Y108831D01*
X95496Y108876D01*
X95362Y108910D01*
X95223Y108934D01*
X95079Y108947D01*
X94930Y108951D01*
X96415Y110436D01*
X96419Y110287D01*
D02*
G37*
G36*
X103532Y110246D02*
X103545Y110102D01*
X103569Y109963D01*
X103603Y109829D01*
X103647Y109700D01*
X103702Y109577D01*
X103767Y109459D01*
X103841Y109346D01*
X103926Y109238D01*
X104022Y109135D01*
X103303Y108416D01*
X103200Y108512D01*
X103092Y108597D01*
X102979Y108671D01*
X102861Y108736D01*
X102738Y108790D01*
X102609Y108835D01*
X102475Y108869D01*
X102336Y108893D01*
X102192Y108906D01*
X102043Y108910D01*
X103528Y110395D01*
X103532Y110246D01*
D02*
G37*
G36*
X26146Y107402D02*
X25978Y107227D01*
X25717Y106909D01*
X25624Y106766D01*
X25557Y106634D01*
X25515Y106514D01*
X25499Y106403D01*
X25508Y106304D01*
X25542Y106216D01*
X25601Y106139D01*
X24164Y107576D01*
X24241Y107516D01*
X24329Y107483D01*
X24428Y107474D01*
X24538Y107491D01*
X24659Y107532D01*
X24791Y107599D01*
X24934Y107692D01*
X25087Y107810D01*
X25252Y107953D01*
X25427Y108121D01*
X26146Y107402D01*
D02*
G37*
G36*
X25187Y100580D02*
X25235Y100496D01*
X25308Y100423D01*
X25408Y100359D01*
X25532Y100305D01*
X25682Y100260D01*
X25858Y100226D01*
X26059Y100202D01*
X26286Y100187D01*
X26539Y100182D01*
X26598Y99166D01*
X26354Y99161D01*
X25948Y99122D01*
X25784Y99087D01*
X25647Y99043D01*
X25537Y98989D01*
X25454Y98925D01*
X25397Y98852D01*
X25367Y98768D01*
X25363Y98675D01*
X25164Y100673D01*
X25187Y100580D01*
D02*
G37*
G36*
X32674Y97820D02*
X32626Y97911D01*
X32562Y97992D01*
X32482Y98064D01*
X32386Y98126D01*
X32274Y98179D01*
X32145Y98222D01*
X32001Y98255D01*
X31840Y98279D01*
X31663Y98293D01*
X31470Y98298D01*
Y99314D01*
X31693Y99319D01*
X32069Y99359D01*
X32221Y99393D01*
X32350Y99438D01*
X32454Y99493D01*
X32536Y99557D01*
X32593Y99632D01*
X32627Y99716D01*
X32637Y99810D01*
X32674Y97820D01*
D02*
G37*
G36*
X112676Y92904D02*
X112664Y92998D01*
X112627Y93082D01*
X112567Y93157D01*
X112483Y93221D01*
X112374Y93276D01*
X112241Y93321D01*
X112085Y93355D01*
X111904Y93380D01*
X111699Y93395D01*
X111469Y93400D01*
Y94416D01*
X111699Y94421D01*
X112085Y94461D01*
X112241Y94495D01*
X112374Y94540D01*
X112483Y94595D01*
X112567Y94659D01*
X112627Y94734D01*
X112664Y94818D01*
X112676Y94912D01*
Y92904D01*
D02*
G37*
G36*
X32676Y92896D02*
X32664Y92990D01*
X32627Y93074D01*
X32567Y93149D01*
X32483Y93213D01*
X32374Y93268D01*
X32241Y93313D01*
X32085Y93347D01*
X31904Y93372D01*
X31699Y93387D01*
X31470Y93392D01*
Y94408D01*
X31699Y94413D01*
X32085Y94453D01*
X32241Y94487D01*
X32374Y94532D01*
X32483Y94587D01*
X32567Y94651D01*
X32627Y94726D01*
X32664Y94810D01*
X32676Y94904D01*
Y92896D01*
D02*
G37*
G36*
X8636Y85976D02*
X8632Y86070D01*
X8602Y86153D01*
X8545Y86227D01*
X8462Y86291D01*
X8352Y86345D01*
X8215Y86389D01*
X8052Y86423D01*
X7862Y86448D01*
X7645Y86463D01*
X7402Y86468D01*
X7462Y87484D01*
X7714Y87488D01*
X8142Y87528D01*
X8318Y87562D01*
X8468Y87606D01*
X8593Y87660D01*
X8692Y87724D01*
X8766Y87798D01*
X8814Y87881D01*
X8837Y87975D01*
X8636Y85976D01*
D02*
G37*
G36*
X112609Y83064D02*
X112601Y83159D01*
X112569Y83243D01*
X112514Y83318D01*
X112435Y83382D01*
X112333Y83437D01*
X112207Y83481D01*
X112058Y83516D01*
X111885Y83541D01*
X111689Y83556D01*
X111470Y83561D01*
X111488Y84577D01*
X111682Y84581D01*
X112021Y84614D01*
X112165Y84643D01*
X112292Y84680D01*
X112402Y84725D01*
X112496Y84778D01*
X112572Y84840D01*
X112632Y84910D01*
X112674Y84988D01*
X112609Y83064D01*
D02*
G37*
G36*
X8736Y79476D02*
X8723Y79569D01*
X8684Y79653D01*
X8619Y79726D01*
X8528Y79790D01*
X8410Y79844D01*
X8267Y79888D01*
X8097Y79923D01*
X7901Y79947D01*
X7680Y79962D01*
X7432Y79967D01*
Y80983D01*
X7680Y80988D01*
X8097Y81027D01*
X8267Y81061D01*
X8410Y81106D01*
X8528Y81160D01*
X8619Y81224D01*
X8684Y81297D01*
X8723Y81381D01*
X8736Y81474D01*
Y79476D01*
D02*
G37*
G36*
X26320Y75102D02*
X26133Y74907D01*
X25829Y74549D01*
X25714Y74386D01*
X25622Y74233D01*
X25554Y74090D01*
X25510Y73957D01*
X25490Y73835D01*
X25494Y73723D01*
X25522Y73621D01*
X24696Y75624D01*
X24745Y75539D01*
X24809Y75482D01*
X24888Y75454D01*
X24982Y75456D01*
X25091Y75487D01*
X25215Y75547D01*
X25354Y75636D01*
X25508Y75755D01*
X25677Y75902D01*
X25861Y76079D01*
X26320Y75102D01*
D02*
G37*
G36*
X64935Y80821D02*
X65000Y80808D01*
X65975Y81002D01*
X66224Y81038D01*
X67276Y81037D01*
X67525Y81002D01*
X68500Y80808D01*
X68565Y80821D01*
X69724Y81038D01*
D01*
X69937Y80980D01*
X70815Y80615D01*
X71210Y79655D01*
X71248Y79514D01*
X71248Y79514D01*
X71031Y78355D01*
X71018Y78290D01*
X71212Y77315D01*
X71358Y77095D01*
X71395Y76911D01*
X71643Y76540D01*
X71395Y76169D01*
X71358Y75985D01*
X71212Y75766D01*
X71018Y74790D01*
X71212Y73815D01*
X71248Y73566D01*
Y72514D01*
X71212Y72265D01*
X71018Y71290D01*
X71212Y70314D01*
X71248Y70066D01*
X71431Y69623D01*
X71477Y69626D01*
X71636Y68827D01*
X72188Y68000D01*
X73015Y67447D01*
X73830Y67285D01*
X73827Y67245D01*
X74337Y67034D01*
X74864Y65741D01*
X74625Y65165D01*
X74167Y64975D01*
X74180Y64942D01*
X74149Y64884D01*
X73322Y64332D01*
X72769Y63505D01*
X72575Y62529D01*
X72751Y61645D01*
X72677Y61630D01*
X71767Y61023D01*
X71160Y60113D01*
X70946Y59040D01*
X70127Y58780D01*
X69554Y59040D01*
X69340Y60113D01*
X68733Y61023D01*
X67823Y61631D01*
X66750Y61844D01*
X65677Y61631D01*
X64767Y61023D01*
X64160Y60113D01*
X63946Y59040D01*
X64011Y58716D01*
X63994Y58554D01*
X63232Y57376D01*
X63098Y57290D01*
X63050Y57281D01*
X62347Y56811D01*
X61661D01*
X60958Y57281D01*
X60129Y57446D01*
X59933D01*
X59887Y57467D01*
X58989Y58716D01*
X59054Y59040D01*
X58840Y60113D01*
X58233Y61023D01*
X57323Y61631D01*
X56693Y61756D01*
X55554Y62540D01*
X55340Y63613D01*
X54733Y64523D01*
X54460Y64704D01*
X54863Y65307D01*
X55024Y66119D01*
X55066Y66117D01*
X55391Y66899D01*
X56153Y67215D01*
X56149Y67264D01*
X56983Y67431D01*
X57810Y67983D01*
X58363Y68810D01*
X58524Y69620D01*
X58567Y69618D01*
X58891Y70399D01*
X59673Y70724D01*
X59671Y70766D01*
X60483Y70927D01*
X61310Y71480D01*
X61863Y72307D01*
X62024Y73119D01*
X62066Y73116D01*
X62252Y73566D01*
X62288Y73815D01*
X62482Y74790D01*
X62288Y75765D01*
X62252Y76014D01*
Y77066D01*
X62288Y77315D01*
X62482Y78290D01*
X62469Y78355D01*
X62252Y79514D01*
D01*
X62296Y79676D01*
X62682Y80608D01*
X63614Y80994D01*
X63776Y81038D01*
Y81038D01*
X64935Y80821D01*
D02*
G37*
G36*
X112638Y72996D02*
X112627Y73090D01*
X112594Y73174D01*
X112536Y73249D01*
X112455Y73313D01*
X112350Y73368D01*
X112221Y73413D01*
X112069Y73447D01*
X111893Y73472D01*
X111693Y73487D01*
X111470Y73492D01*
Y74508D01*
X111663Y74513D01*
X111840Y74527D01*
X112000Y74551D01*
X112145Y74585D01*
X112274Y74628D01*
X112386Y74681D01*
X112482Y74743D01*
X112562Y74815D01*
X112626Y74897D01*
X112674Y74988D01*
X112638Y72996D01*
D02*
G37*
G36*
X122828Y68000D02*
X122557Y67998D01*
X121607Y67938D01*
X121498Y67916D01*
X121417Y67890D01*
X121362Y67861D01*
X121334Y67828D01*
Y69988D01*
X121348Y69990D01*
X121392Y69992D01*
X122828Y70000D01*
Y68000D01*
D02*
G37*
G36*
X25277Y68681D02*
X25316Y68597D01*
X25381Y68524D01*
X25473Y68460D01*
X25590Y68406D01*
X25733Y68362D01*
X25903Y68327D01*
X26098Y68303D01*
X26320Y68288D01*
X26568Y68283D01*
Y67267D01*
X26320Y67262D01*
X25903Y67223D01*
X25733Y67188D01*
X25590Y67144D01*
X25473Y67090D01*
X25381Y67026D01*
X25316Y66953D01*
X25277Y66869D01*
X25264Y66776D01*
Y68774D01*
X25277Y68681D01*
D02*
G37*
G36*
X31049Y66796D02*
X31384Y65739D01*
X31127Y65354D01*
X30962Y64525D01*
Y63275D01*
X31127Y62446D01*
X31597Y61743D01*
Y61057D01*
X31127Y60354D01*
X30962Y59525D01*
Y58275D01*
X31127Y57446D01*
X31597Y56743D01*
X32300Y56273D01*
X33129Y56108D01*
X40583D01*
X41230Y55633D01*
X41712Y54979D01*
Y47529D01*
X41877Y46700D01*
X42347Y45997D01*
X43050Y45527D01*
X43879Y45362D01*
X45129D01*
X45958Y45527D01*
X46661Y45997D01*
X47347D01*
X48050Y45527D01*
X48879Y45362D01*
X50129D01*
X50958Y45527D01*
X51661Y45997D01*
X52347D01*
X53050Y45527D01*
X53879Y45362D01*
X55129D01*
X55958Y45527D01*
X56661Y45997D01*
X57347D01*
X58050Y45527D01*
X58879Y45362D01*
X60129D01*
X60958Y45527D01*
X61661Y45997D01*
X62347D01*
X63050Y45527D01*
X63879Y45362D01*
X65129D01*
X65958Y45527D01*
X66661Y45997D01*
X67347D01*
X68050Y45527D01*
X68879Y45362D01*
X70129D01*
X70958Y45527D01*
X71661Y45997D01*
X72347D01*
X73050Y45527D01*
X73879Y45362D01*
X75129D01*
X75958Y45527D01*
X76661Y45997D01*
X77347D01*
X78050Y45527D01*
X78069Y45523D01*
X79236Y44880D01*
X79450Y43807D01*
X80057Y42897D01*
X80967Y42290D01*
X82040Y42076D01*
X83113Y42290D01*
X84023Y42897D01*
X84630Y43807D01*
X84844Y44880D01*
X85958Y45527D01*
X86661Y45997D01*
X87347D01*
X88050Y45527D01*
X88104Y45517D01*
X89196Y44500D01*
X89410Y43427D01*
X90017Y42517D01*
X90927Y41910D01*
X92000Y41696D01*
X93073Y41910D01*
X93983Y42517D01*
X94590Y43427D01*
X94804Y44500D01*
X95897Y45515D01*
X95924Y45520D01*
X95965Y45527D01*
X96083Y45524D01*
X97312Y44904D01*
X97369Y44617D01*
X97869Y43869D01*
X99869Y41869D01*
X100618Y41369D01*
X101500Y41194D01*
X115500D01*
X116383Y41369D01*
X117131Y41869D01*
X117327Y42065D01*
X118500Y41579D01*
Y38862D01*
X65000D01*
Y-1666D01*
X45856D01*
Y3120D01*
X42807D01*
Y10233D01*
X43233Y10869D01*
X43458Y12001D01*
X43233Y13132D01*
X42787Y13799D01*
X43703Y14714D01*
X44369Y14269D01*
X45501Y14044D01*
X46632Y14269D01*
X47063Y14557D01*
X47278Y14413D01*
X48351Y14200D01*
X49424Y14413D01*
X50333Y15021D01*
X50941Y15930D01*
X51155Y17003D01*
X50941Y18076D01*
X50561Y18645D01*
X50419Y19503D01*
X50561Y20361D01*
X50941Y20930D01*
X51155Y22003D01*
X50941Y23076D01*
X50333Y23986D01*
X49424Y24594D01*
X48351Y24807D01*
X47278Y24594D01*
X47059Y24448D01*
X46632Y24732D01*
X45501Y24958D01*
X44369Y24732D01*
X43900Y24419D01*
X43792Y24392D01*
X42565Y24935D01*
X42563Y24937D01*
Y27484D01*
X43620D01*
Y33516D01*
X37746D01*
X37631Y33631D01*
X37620Y33638D01*
Y33842D01*
X37315D01*
X36883Y34131D01*
X36000Y34306D01*
X27000D01*
X26700Y34553D01*
Y52000D01*
X16300D01*
Y49960D01*
X15500Y49304D01*
X14427Y49090D01*
X13500Y48494D01*
X12573Y49090D01*
X11500Y49304D01*
X10427Y49090D01*
X9517Y48483D01*
X8910Y47573D01*
X8696Y46500D01*
X8910Y45427D01*
X9517Y44517D01*
X10427Y43910D01*
X10726Y43850D01*
X10910Y42927D01*
X11517Y42017D01*
X12427Y41410D01*
X13500Y41196D01*
X14573Y41410D01*
X15030Y41715D01*
X16300Y41129D01*
Y33866D01*
X16000D01*
X15219Y33543D01*
X14896Y32762D01*
Y26500D01*
Y20000D01*
X15219Y19219D01*
X15719Y18281D01*
X15396Y17500D01*
Y12500D01*
X15719Y11719D01*
X19396Y8043D01*
Y3120D01*
X19158D01*
Y-1666D01*
X5000D01*
Y53381D01*
X6256Y54068D01*
X7040Y53913D01*
X7040Y53913D01*
X17160D01*
X17160Y53913D01*
X17944Y54068D01*
X18608Y54512D01*
X19364Y55269D01*
X20073Y55410D01*
X20983Y56017D01*
X21305Y56500D01*
X26000D01*
Y65269D01*
X26243Y65432D01*
X26441Y65728D01*
X27595D01*
X27595Y65728D01*
X28379Y65883D01*
X29043Y66327D01*
X29794Y67079D01*
X31049Y66796D01*
D02*
G37*
G36*
X19129Y56757D02*
X19028Y56742D01*
X18929Y56720D01*
X18830Y56690D01*
X18733Y56651D01*
X18637Y56605D01*
X18542Y56551D01*
X18448Y56489D01*
X18356Y56419D01*
X18264Y56341D01*
X18174Y56255D01*
X17365Y56884D01*
X17452Y56976D01*
X17527Y57068D01*
X17593Y57162D01*
X17648Y57257D01*
X17692Y57353D01*
X17727Y57449D01*
X17750Y57547D01*
X17764Y57646D01*
X17767Y57745D01*
X17759Y57846D01*
X19129Y56757D01*
D02*
G37*
G36*
X124384Y47969D02*
X123999Y47574D01*
X123390Y46875D01*
X123165Y46572D01*
X122994Y46301D01*
X122876Y46060D01*
X122812Y45851D01*
X122801Y45673D01*
X122843Y45526D01*
X122939Y45409D01*
X120160Y47689D01*
X120295Y47613D01*
X120458Y47586D01*
X120647Y47608D01*
X120863Y47679D01*
X121106Y47799D01*
X121375Y47968D01*
X121671Y48186D01*
X121994Y48453D01*
X122719Y49134D01*
X124384Y47969D01*
D02*
G37*
G36*
X100523Y47034D02*
X100468Y46968D01*
X100420Y46876D01*
X100378Y46758D01*
X100343Y46614D01*
X100314Y46443D01*
X100291Y46247D01*
X100265Y45775D01*
X100262Y45500D01*
X98738D01*
X98735Y45776D01*
X98688Y46445D01*
X98659Y46615D01*
X98625Y46760D01*
X98584Y46878D01*
X98537Y46969D01*
X98484Y47035D01*
X98424Y47074D01*
X100584D01*
X100523Y47034D01*
D02*
G37*
G36*
X120030Y47000D02*
X120080Y47003D01*
X120170Y47019D01*
X120247Y47038D01*
X120312Y47060D01*
X120364Y47086D01*
X120404Y47115D01*
X120431Y47148D01*
X120831Y45444D01*
X120821Y45445D01*
X120797Y45447D01*
X120069Y45452D01*
X120030Y45575D01*
Y45280D01*
X120015Y45313D01*
X119970Y45342D01*
X119893Y45368D01*
X119787Y45390D01*
X119649Y45409D01*
X119284Y45437D01*
X118506Y45452D01*
Y46976D01*
X118796Y46983D01*
X119055Y47006D01*
X119284Y47043D01*
X119482Y47095D01*
X119649Y47162D01*
X119787Y47244D01*
X119893Y47340D01*
X119970Y47452D01*
X120015Y47578D01*
X120030Y47719D01*
Y47000D01*
D02*
G37*
G36*
X41636Y29028D02*
X41506Y28981D01*
X41392Y28902D01*
X41293Y28793D01*
X41209Y28653D01*
X41141Y28482D01*
X41087Y28280D01*
X41049Y28048D01*
X41026Y27785D01*
X41019Y27491D01*
X39495D01*
X39489Y27780D01*
X39442Y28268D01*
X39401Y28466D01*
X39349Y28634D01*
X39284Y28771D01*
X39208Y28878D01*
X39121Y28954D01*
X39021Y29000D01*
X38911Y29015D01*
X41781Y29045D01*
X41636Y29028D01*
D02*
G37*
G36*
X41024Y24569D02*
X41065Y24101D01*
X41100Y23891D01*
X41146Y23696D01*
X41202Y23516D01*
X41269Y23352D01*
X41345Y23203D01*
X41432Y23069D01*
X41529Y22951D01*
X39328Y22766D01*
X39360Y22829D01*
X39388Y22917D01*
X39413Y23029D01*
X39435Y23165D01*
X39468Y23512D01*
X39493Y24215D01*
X39495Y24498D01*
X41019Y24825D01*
X41024Y24569D01*
D02*
G37*
G36*
X32273Y32500D02*
X36500D01*
X37000Y32000D01*
Y23000D01*
X36595D01*
X36613Y22917D01*
X36642Y22829D01*
X36673Y22766D01*
X35528Y22862D01*
X35144D01*
X34111Y21829D01*
X34089Y21943D01*
X34047Y22067D01*
X33988Y22199D01*
X33909Y22339D01*
X33813Y22489D01*
X33698Y22647D01*
X33413Y22990D01*
X33404Y23000D01*
X31000D01*
X28000Y20000D01*
X16000Y20000D01*
Y26500D01*
X25000D01*
X25500Y27000D01*
Y31000D01*
X27000Y32500D01*
X31386D01*
Y32762D01*
X32273Y32500D01*
D02*
G37*
G36*
X46574Y22920D02*
X46690Y22834D01*
X46811Y22758D01*
X46938Y22692D01*
X47071Y22636D01*
X47094Y22628D01*
X47124Y22641D01*
X47216Y22689D01*
X47302Y22744D01*
X47382Y22807D01*
X47456Y22877D01*
X47457Y22537D01*
X47504Y22529D01*
X47660Y22514D01*
X47821Y22509D01*
Y21493D01*
X47660Y21488D01*
X47504Y21472D01*
X47459Y21465D01*
X47460Y21126D01*
X47385Y21196D01*
X47305Y21258D01*
X47218Y21313D01*
X47127Y21361D01*
X47096Y21374D01*
X47071Y21366D01*
X46938Y21310D01*
X46811Y21244D01*
X46690Y21168D01*
X46574Y21081D01*
X46464Y20985D01*
Y21493D01*
X46460Y21493D01*
X46458Y22509D01*
X46464Y22509D01*
Y23017D01*
X46574Y22920D01*
D02*
G37*
G36*
Y17920D02*
X46690Y17834D01*
X46811Y17758D01*
X46938Y17692D01*
X47071Y17636D01*
X47094Y17628D01*
X47124Y17641D01*
X47216Y17689D01*
X47302Y17744D01*
X47382Y17807D01*
X47456Y17876D01*
X47457Y17537D01*
X47504Y17529D01*
X47660Y17514D01*
X47821Y17509D01*
Y16493D01*
X47660Y16488D01*
X47504Y16473D01*
X47459Y16465D01*
X47460Y16127D01*
X47385Y16196D01*
X47305Y16258D01*
X47218Y16313D01*
X47127Y16361D01*
X47096Y16374D01*
X47071Y16366D01*
X46938Y16310D01*
X46811Y16244D01*
X46690Y16168D01*
X46574Y16081D01*
X46464Y15985D01*
Y16493D01*
X46460Y16493D01*
X46458Y17509D01*
X46464Y17509D01*
Y18017D01*
X46574Y17920D01*
D02*
G37*
G36*
X33500Y19500D02*
X37000D01*
Y15500D01*
X34500D01*
X33000Y14000D01*
X30500D01*
Y20500D01*
X32500D01*
X33500Y19500D01*
D02*
G37*
G36*
X41540Y11042D02*
X41481Y10926D01*
X41430Y10790D01*
X41386Y10635D01*
X41348Y10461D01*
X41318Y10268D01*
X41276Y9824D01*
X41263Y9302D01*
X39739D01*
X39735Y9573D01*
X39684Y10268D01*
X39653Y10461D01*
X39616Y10635D01*
X39571Y10790D01*
X39520Y10926D01*
X39462Y11042D01*
X39397Y11139D01*
X41604D01*
X41540Y11042D01*
D02*
G37*
G36*
X36465Y967D02*
X36497Y924D01*
X36549Y886D01*
X36595Y865D01*
X36607Y875D01*
Y860D01*
X36622Y853D01*
X36716Y825D01*
X36831Y803D01*
X36967Y785D01*
X37301Y764D01*
X37500Y762D01*
Y-762D01*
X37301Y-764D01*
X36831Y-803D01*
X36716Y-825D01*
X36622Y-853D01*
X36607Y-860D01*
Y-875D01*
X36595Y-865D01*
X36549Y-886D01*
X36497Y-924D01*
X36465Y-967D01*
X36455Y-1015D01*
Y-811D01*
X36418Y-803D01*
X36340Y-790D01*
X36145Y-772D01*
X35900Y-763D01*
X35759Y-762D01*
Y762D01*
X35900Y763D01*
X36340Y790D01*
X36418Y803D01*
X36455Y811D01*
Y1015D01*
X36465Y967D01*
D02*
G37*
G36*
X28500Y13000D02*
X29158Y12342D01*
X34143D01*
Y10500D01*
X37000Y10500D01*
X37000Y6500D01*
X36000Y5500D01*
X32000D01*
X32000Y-1000D01*
X31500Y-1500D01*
X20500D01*
Y8500D01*
X16500Y12500D01*
Y17500D01*
X28500D01*
Y13000D01*
D02*
G37*
%LPC*%
G36*
X58001Y11751D02*
X52001D01*
Y11606D01*
X51019Y10800D01*
X51000Y10804D01*
X49927Y10590D01*
X49017Y9983D01*
X48410Y9073D01*
X48196Y8000D01*
X48354Y7207D01*
X48017Y6983D01*
X47410Y6073D01*
X47196Y5000D01*
X47410Y3927D01*
X48017Y3017D01*
X48927Y2410D01*
X50000Y2196D01*
X51073Y2410D01*
X51750Y2862D01*
X52427Y2410D01*
X53500Y2196D01*
X54573Y2410D01*
X55483Y3017D01*
X56090Y3927D01*
X56304Y5000D01*
X56291Y5064D01*
X57273Y6251D01*
X58001D01*
Y11751D01*
D02*
G37*
%LPD*%
D11*
X125500Y132000D02*
G03*
X123517Y135730I-4500J0D01*
G01*
X121675Y127551D02*
G03*
X125500Y132000I-675J4449D01*
G01*
X124004Y124529D02*
G03*
X121675Y127551I-3125J0D01*
G01*
X118483Y135730D02*
G03*
X119833Y127654I2517J-3730D01*
G01*
X123381Y121406D02*
G03*
X124004Y123279I-2501J1873D01*
G01*
X124004Y119533D02*
G03*
X123381Y121406I-3125J0D01*
G01*
X120879Y115158D02*
G03*
X124004Y118283I0J3125D01*
G01*
X125730Y113287D02*
G03*
X121257Y112635I-1804J-3287D01*
G01*
X115915Y115158D02*
G03*
X117847Y115158I966J3623D01*
G01*
X110004Y123279D02*
G03*
X110136Y122379I3125J0D01*
G01*
X110136D02*
G03*
X108067Y122061I-487J-3718D01*
G01*
X111685Y115512D02*
G03*
X113129Y115158I1444J2771D01*
G01*
Y112658D02*
G03*
X110004Y109533I0J-3125D01*
G01*
X107598Y115521D02*
G03*
X111685Y115512I2051J3140D01*
G01*
X100754Y127529D02*
G03*
X101543Y125453I3125J0D01*
G01*
X108067Y124511D02*
G03*
X108879Y124404I812J3018D01*
G01*
X85129D02*
G03*
X87004Y125029I0J3125D01*
G01*
X82004D02*
G03*
X83879Y124404I1875J2500D01*
G01*
X98411Y123659D02*
G03*
X93228Y127124I-3750J0D01*
G01*
X90129Y124404D02*
G03*
X91014Y124532I0J3125D01*
G01*
Y124532D02*
G03*
X91875Y121149I3647J-873D01*
G01*
X87004Y125029D02*
G03*
X88879Y124404I1875J2500D01*
G01*
X101543Y122402D02*
G03*
X98302Y120078I230J-3743D01*
G01*
X110004Y109143D02*
G03*
X107942Y108750I-356J-3733D01*
G01*
X98255Y117362D02*
G03*
X103827Y115521I3519J1297D01*
G01*
X106019Y110673D02*
G03*
X98482Y112261I-3991J-263D01*
G01*
X98302Y120078D02*
G03*
X97570Y121292I-3519J-1297D01*
G01*
D02*
G03*
X98411Y123659I-2908J2367D01*
G01*
X91875Y121149D02*
G03*
X98255Y117362I2908J-2367D01*
G01*
X98482Y112261D02*
G03*
X91581Y112661I-3567J-1810D01*
G01*
X91581Y112661D02*
G03*
X90056Y113079I-1530J-2590D01*
G01*
X90056D02*
G03*
X84147Y107690I-3015J-2628D01*
G01*
X91581Y112661D02*
G03*
X90056Y113079I-1530J-2590D01*
G01*
X102206Y77286D02*
G03*
X102568Y75855I3008J0D01*
G01*
X99750Y89183D02*
G03*
X102206Y88817I1750J3317D01*
G01*
Y77286D02*
G03*
X102568Y75855I3008J0D01*
G01*
X110004Y68283D02*
G03*
X110629Y66408I3125J0D01*
G01*
X110365Y70992D02*
G03*
X110004Y69533I2763J-1459D01*
G01*
X110629Y66408D02*
G03*
X110004Y64533I2500J-1875D01*
G01*
X102568Y75855D02*
G03*
X108178Y71009I2432J-2855D01*
G01*
X110004Y58283D02*
G03*
X113129Y55158I3125J0D01*
G01*
X110629Y61408D02*
G03*
X110004Y59533I2500J-1875D01*
G01*
Y63283D02*
G03*
X110629Y61408I3125J0D01*
G01*
X118500Y50250D02*
G03*
X112328Y50000I-3000J-2250D01*
G01*
X103254Y55279D02*
G03*
X100129Y58404I-3125J0D01*
G01*
X94750Y96992D02*
G03*
X95279Y95080I3750J8D01*
G01*
X88136Y101819D02*
G03*
X88779Y100869I2767J1181D01*
G01*
X88136Y101819D02*
G03*
X88776Y100873I2767J1181D01*
G01*
X95279Y95080D02*
G03*
X99750Y89183I2721J-2580D01*
G01*
X94950Y81600D02*
G03*
X87549Y82458I-3750J0D01*
G01*
X92650Y78142D02*
G03*
X94950Y81600I-1451J3458D01*
G01*
X89155Y100494D02*
G03*
X93789Y96850I885J-3644D01*
G01*
X84147Y107690D02*
G03*
X88136Y101819I2997J-2254D01*
G01*
X87549Y82458D02*
G03*
X92650Y78142I1451J-3458D01*
G01*
X82096Y73040D02*
G03*
X84500Y76540I-1346J3500D01*
G01*
X98879Y58404D02*
G03*
X95754Y55279I0J-3125D01*
G01*
X91687Y61813D02*
G03*
X94750Y65500I-687J3687D01*
G01*
X87742Y58759D02*
G03*
X91687Y61813I258J3741D01*
G01*
X94750Y65500D02*
G03*
X87313Y66187I-3750J0D01*
G01*
X84500Y69540D02*
G03*
X82096Y73040I-3750J0D01*
G01*
X87402Y57423D02*
G03*
X87742Y58759I-3402J1577D01*
G01*
X88254Y55279D02*
G03*
X87402Y57423I-3125J0D01*
G01*
X87313Y66187D02*
G03*
X84258Y62741I687J-3687D01*
G01*
X84258D02*
G03*
X80635Y60655I-258J-3741D01*
G01*
X80129Y124404D02*
G03*
X82004Y125029I0J3125D01*
G01*
X77004Y125029D02*
G03*
X78879Y124404I1875J2500D01*
G01*
X75129Y124404D02*
G03*
X77004Y125029I0J3125D01*
G01*
X72004D02*
G03*
X73879Y124404I1875J2500D01*
G01*
X70129D02*
G03*
X72004Y125029I0J3125D01*
G01*
X67004D02*
G03*
X68879Y124404I1875J2500D01*
G01*
X65129D02*
G03*
X67004Y125029I0J3125D01*
G01*
X62004D02*
G03*
X63879Y124404I1875J2500D01*
G01*
X60129D02*
G03*
X62004Y125029I0J3125D01*
G01*
X65925Y111277D02*
G03*
X59967Y114308I-3750J0D01*
G01*
D02*
G03*
X60193Y108094I-1982J-3183D01*
G01*
D02*
G03*
X65925Y111277I1982J3183D01*
G01*
X65900Y100330D02*
G03*
X59650Y103125I-3750J0D01*
G01*
Y97535D02*
G03*
X65900Y100330I2500J2795D01*
G01*
X63495Y90764D02*
G03*
X57995Y94081I-3750J0D01*
G01*
X57004Y125029D02*
G03*
X58879Y124404I1875J2500D01*
G01*
X55129D02*
G03*
X57004Y125029I0J3125D01*
G01*
X52004D02*
G03*
X53879Y124404I1875J2500D01*
G01*
X50129D02*
G03*
X52004Y125029I0J3125D01*
G01*
X47004D02*
G03*
X48879Y124404I1875J2500D01*
G01*
X51925Y119305D02*
G03*
X51925Y119305I-3750J0D01*
G01*
X45129Y124404D02*
G03*
X47004Y125029I0J3125D01*
G01*
X44004Y119525D02*
G03*
X43379Y121400I-3125J0D01*
G01*
D02*
G03*
X44004Y123275I-2500J1875D01*
G01*
X43379Y116400D02*
G03*
X44004Y118275I-2500J1875D01*
G01*
Y114525D02*
G03*
X43379Y116400I-3125J0D01*
G01*
X59650Y103125D02*
G03*
X59650Y97535I-2500J-2795D01*
G01*
X43379Y111400D02*
G03*
X44004Y113275I-2500J1875D01*
G01*
X43379Y106400D02*
G03*
X44004Y108275I-2500J1875D01*
G01*
Y109525D02*
G03*
X43379Y111400I-3125J0D01*
G01*
X44004Y104525D02*
G03*
X43379Y106400I-3125J0D01*
G01*
Y101400D02*
G03*
X44004Y103275I-2500J1875D01*
G01*
X48627Y93726D02*
G03*
X43859Y97335I-3750J0D01*
G01*
X44004Y99525D02*
G03*
X43379Y101400I-3125J0D01*
G01*
X43859Y97335D02*
G03*
X44004Y98275I-2980J940D01*
G01*
X81000Y87040D02*
G03*
X75500Y90357I-3750J0D01*
G01*
X81000Y83540D02*
G03*
X80567Y85290I-3750J0D01*
G01*
D02*
G03*
X81000Y87040I-3317J1750D01*
G01*
X84500Y76540D02*
G03*
X79000Y79857I-3750J0D01*
G01*
X78596Y80040D02*
G03*
X81000Y83540I-1346J3500D01*
G01*
X73508Y83298D02*
G03*
X75904Y80040I3742J242D01*
G01*
D02*
G03*
X73750Y77886I1346J-3500D01*
G01*
X57995Y87448D02*
G03*
X63495Y90764I1750J3317D01*
G01*
X68500Y83357D02*
G03*
X65000Y83357I-1750J-3317D01*
G01*
X75500Y90357D02*
G03*
X73508Y83298I-1750J-3317D01*
G01*
X65000Y83357D02*
G03*
X59933Y78290I-1750J-3317D01*
G01*
X74000Y80040D02*
G03*
X68500Y83357I-3750J0D01*
G01*
X73750Y75194D02*
G03*
X79000Y73223I3500J1346D01*
G01*
X77520Y66040D02*
G03*
X73991Y69802I-3770J0D01*
G01*
X79404Y73040D02*
G03*
X84500Y69540I1346J-3500D01*
G01*
X80635Y60655D02*
G03*
X75500Y62357I-3385J-1614D01*
G01*
X75124Y62529D02*
G03*
X77520Y66040I-1374J3511D01*
G01*
X73567Y78290D02*
G03*
X74000Y80040I-3317J1750D01*
G01*
X59933Y78290D02*
G03*
X59933Y74790I3317J-1750D01*
G01*
X73567Y71290D02*
G03*
X74000Y73040I-3317J1750D01*
G01*
D02*
G03*
X73567Y74790I-3750J0D01*
G01*
X73991Y69802D02*
G03*
X73567Y71290I-3741J-262D01*
G01*
X59933Y74790D02*
G03*
X59508Y73282I3317J-1750D01*
G01*
D02*
G03*
X56008Y69785I242J-3742D01*
G01*
X57995Y94081D02*
G03*
X57995Y87448I-1750J-3317D01*
G01*
X47298Y83242D02*
G03*
X48627Y86106I-2421J2864D01*
G01*
X51000Y83357D02*
G03*
X47298Y83242I-1750J-3317D01*
G01*
X56067Y78290D02*
G03*
X56500Y80040I-3317J1750D01*
G01*
D02*
G03*
X51000Y83357I-3750J0D01*
G01*
X56500Y76540D02*
G03*
X56067Y78290I-3750J0D01*
G01*
X50032Y73957D02*
G03*
X56500Y76540I2718J2583D01*
G01*
X50150Y73022D02*
G03*
X50032Y73957I-3750J0D01*
G01*
X48627Y86106D02*
G03*
X43996Y89751I-3750J0D01*
G01*
X43952Y90092D02*
G03*
X48627Y93726I925J3634D01*
G01*
X43903Y82485D02*
G03*
X46829Y82904I975J3621D01*
G01*
X43379Y81400D02*
G03*
X43903Y82485I-2500J1875D01*
G01*
X46829Y82904D02*
G03*
X45503Y80184I2421J-2864D01*
G01*
X43930Y70201D02*
G03*
X50150Y73022I2470J2822D01*
G01*
X44004Y79525D02*
G03*
X43379Y81400I-3125J0D01*
G01*
X45503Y80184D02*
G03*
X44004Y79427I897J-3641D01*
G01*
X55940Y69777D02*
G03*
X52508Y66282I310J-3737D01*
G01*
X52004Y57779D02*
G03*
X50129Y58404I-1875J-2500D01*
G01*
X52508Y66282D02*
G03*
X52508Y58798I242J-3742D01*
G01*
X47004Y57779D02*
G03*
X45129Y58404I-1875J-2500D01*
G01*
X48879D02*
G03*
X47004Y57779I0J-3125D01*
G01*
X44004Y64525D02*
G03*
X43379Y66400I-3125J0D01*
G01*
D02*
G03*
X44004Y68275I-2500J1875D01*
G01*
X43379Y61400D02*
G03*
X44004Y63275I-2500J1875D01*
G01*
Y59525D02*
G03*
X43379Y61400I-3125J0D01*
G01*
X123521Y135727D02*
X125730D01*
X123517Y135730D02*
X125730D01*
X124910Y134227D02*
X125730D01*
X124884Y129727D02*
X125730D01*
X123453Y128227D02*
X125730D01*
Y113287D02*
Y135730D01*
X123100Y126727D02*
X125730D01*
X123925Y125227D02*
X125730D01*
X117004Y127654D02*
X119833D01*
X113222Y135727D02*
X118479D01*
X113221Y135730D02*
X118483D01*
X113254Y134227D02*
X117090D01*
X113254Y132727D02*
X116559D01*
X113254Y131404D02*
Y135279D01*
Y131227D02*
X116567D01*
X113254Y129727D02*
X117116D01*
X113254Y128227D02*
X118547D01*
X113254Y127654D02*
Y131404D01*
Y127654D02*
X117004D01*
X124004Y123727D02*
X125730D01*
X123822Y122227D02*
X125730D01*
X123767Y120727D02*
X125730D01*
X124004Y123279D02*
Y124529D01*
X124004Y119227D02*
X125730D01*
X123954Y117727D02*
X125730D01*
X123233Y116227D02*
X125730D01*
X124004Y118283D02*
Y119533D01*
X113129Y115158D02*
X115915D01*
X117847D02*
X120879D01*
X113129Y112658D02*
X120879D01*
X104867Y113227D02*
X122016D01*
X105805Y111727D02*
X110904D01*
X93254Y132727D02*
X100754D01*
X93254Y134227D02*
X100754D01*
X93254Y129727D02*
X100754D01*
Y127529D02*
Y135279D01*
X93254Y131404D02*
Y135279D01*
Y128227D02*
X100754D01*
X108067Y122061D02*
Y124511D01*
X101543Y122402D02*
Y125453D01*
X96817Y126727D02*
X100858D01*
X98067Y125227D02*
X101543D01*
X93222Y135727D02*
X100786D01*
X93221Y135730D02*
X100787D01*
X93254Y131227D02*
X100754D01*
X93254Y127529D02*
Y131404D01*
X88879Y124404D02*
X90129D01*
X110004Y123279D02*
Y124404D01*
X108879D02*
X110004D01*
X108067Y123727D02*
X110004D01*
X98411D02*
X101543D01*
X98127Y122227D02*
X100621D01*
X106465Y110227D02*
X110082D01*
X106019Y110673D02*
X107942Y108750D01*
X103827Y115521D02*
X107598D01*
X97530Y116227D02*
X98918D01*
X83879Y124404D02*
X85129D01*
X89921Y113227D02*
X92036D01*
X97795D02*
X99189D01*
X108500Y70992D02*
X110365D01*
X106831Y69728D02*
X110010D01*
X102206Y77714D02*
Y88817D01*
X110004Y68283D02*
Y69533D01*
Y63283D02*
Y64533D01*
X94578Y83227D02*
X102206D01*
X93611Y78727D02*
X102206D01*
X92305Y77228D02*
X102207D01*
X80936Y87727D02*
X102206D01*
X80911Y86227D02*
X102206D01*
X93269Y84727D02*
X102206D01*
X94543Y66727D02*
X110419D01*
X93574Y68228D02*
X110005D01*
X94740Y65227D02*
X110082D01*
X90831Y75728D02*
X102426D01*
X84495Y69728D02*
X103169D01*
X113129Y55158D02*
X117004D01*
X120499D01*
X110004Y58283D02*
Y59533D01*
X120499Y50449D02*
Y55158D01*
X115910Y51727D02*
X120499D01*
X118500Y50250D02*
X120300D01*
X103254Y50000D02*
Y55279D01*
Y51727D02*
X115090D01*
X92831Y62228D02*
X110188D01*
X91305Y60728D02*
X110241D01*
X103107Y56227D02*
X110775D01*
X94305Y63727D02*
X110004D01*
X89831Y59227D02*
X110004D01*
X102071Y57727D02*
X110054D01*
X103254Y53228D02*
X120499D01*
X103254Y54728D02*
X120499D01*
X103254Y50227D02*
X112483D01*
X103254Y50000D02*
X112328D01*
X93787Y96727D02*
X94760D01*
X93420Y95227D02*
X95195D01*
X93903Y96992D02*
X94750D01*
X94948Y81727D02*
X102206D01*
X94690Y80227D02*
X102206D01*
X92115Y93727D02*
X94457D01*
X80807Y84727D02*
X89131D01*
X81432Y80227D02*
X85457D01*
X80987Y83227D02*
X87822D01*
X83796Y78727D02*
X85260D01*
X84411Y75728D02*
X87169D01*
X83702Y74227D02*
X101457D01*
X84437Y77228D02*
X85695D01*
X98879Y58404D02*
X100129D01*
X88107Y56227D02*
X95901D01*
X88254Y54728D02*
X95754D01*
X88254Y51727D02*
X95754D01*
X88254Y53228D02*
X95754D01*
X88254Y50227D02*
X95754D01*
Y50000D02*
Y55279D01*
X88254Y50000D02*
Y55279D01*
Y50000D02*
X95754D01*
X84099Y71227D02*
X101695D01*
X82725Y72727D02*
X101260D01*
X84263Y68228D02*
X88426D01*
X83230Y66727D02*
X87457D01*
X87528Y57727D02*
X96937D01*
X78879Y124404D02*
X80129D01*
X73879Y124404D02*
X75129D01*
X68879D02*
X70129D01*
X63645Y114727D02*
X125730D01*
X63879Y124404D02*
X65129D01*
X51645Y120727D02*
X91578D01*
X50525Y122227D02*
X91195D01*
X51924Y119227D02*
X91060D01*
X44004Y123727D02*
X90912D01*
X51577Y117727D02*
X91185D01*
X50317Y116227D02*
X92038D01*
X59026Y114727D02*
X60706D01*
X65378Y113227D02*
X84162D01*
X65034Y102727D02*
X84550D01*
X65791Y101227D02*
X88473D01*
X65898Y111727D02*
X83250D01*
X65775Y110227D02*
X83047D01*
X64925Y108727D02*
X83432D01*
X65851Y99727D02*
X87634D01*
X63198Y92227D02*
X94260D01*
X77932Y90727D02*
X94695D01*
X74432D02*
X76568D01*
X65255Y98227D02*
X86551D01*
X63495Y90727D02*
X73068D01*
X44004Y104227D02*
X83594D01*
X43823Y107227D02*
X83849D01*
X63191Y96727D02*
X86291D01*
X43763Y105727D02*
X83405D01*
X48314Y95227D02*
X86658D01*
X62043Y93727D02*
X87963D01*
X58191Y96727D02*
X61109D01*
X58879Y124404D02*
X60129D01*
X53879D02*
X55129D01*
X48879D02*
X50129D01*
X44004D02*
X45129D01*
X44004Y113275D02*
Y114525D01*
Y123275D02*
Y124404D01*
X43823Y122227D02*
X45825D01*
X43763Y120727D02*
X44705D01*
X44004Y118275D02*
Y119525D01*
X43956Y117727D02*
X44773D01*
X43500Y116227D02*
X46032D01*
X43997Y114727D02*
X56943D01*
X44004Y108727D02*
X55101D01*
X44004Y113227D02*
X54879D01*
X43956Y102727D02*
X54266D01*
X44004Y103275D02*
Y104525D01*
Y108275D02*
Y109525D01*
X43997Y99727D02*
X53449D01*
X44004Y98227D02*
X54045D01*
X47125Y96727D02*
X56109D01*
X48627Y93727D02*
X53947D01*
X44004Y98275D02*
Y99525D01*
X48315Y92227D02*
X52792D01*
X43594Y111727D02*
X54283D01*
X43924Y110227D02*
X54343D01*
X43500Y101227D02*
X53509D01*
X80296Y89227D02*
X96169D01*
X80533Y81727D02*
X86426D01*
X72225Y83227D02*
X73513D01*
X79008Y80227D02*
X80068D01*
X73995D02*
X75492D01*
X63166Y89227D02*
X70704D01*
X48625Y86227D02*
X70089D01*
X48365Y84727D02*
X70798D01*
X61945Y87727D02*
X70064D01*
X54725Y83227D02*
X61274D01*
X56099Y81727D02*
X59901D01*
X73987Y72727D02*
X78775D01*
X77457Y66727D02*
X78270D01*
X73599Y71227D02*
X77401D01*
X74534Y69728D02*
X77005D01*
X77431Y65227D02*
X85426D01*
X76727Y63727D02*
X84457D01*
X79225Y62228D02*
X82091D01*
X56263Y78727D02*
X59737D01*
X56436Y77228D02*
X59563D01*
X56411Y75728D02*
X59589D01*
X55702Y74227D02*
X59693D01*
X48259Y87727D02*
X54045D01*
X56495Y80227D02*
X59505D01*
X47129Y90727D02*
X52495D01*
X50138Y72727D02*
X57775D01*
X46955Y89227D02*
X52825D01*
X43594Y81727D02*
X45901D01*
X43924Y80227D02*
X45505D01*
X49693Y71227D02*
X56401D01*
X48190Y69728D02*
X55568D01*
X44004Y63275D02*
Y64525D01*
Y68275D02*
Y69525D01*
Y63727D02*
X49193D01*
X48879Y58404D02*
X50129D01*
X44004D02*
Y59525D01*
X44004Y68228D02*
X53204D01*
X43594Y66727D02*
X52564D01*
X43924Y65227D02*
X50135D01*
X43823Y62228D02*
X49013D01*
X44004Y59227D02*
X50992D01*
X43763Y60728D02*
X49467D01*
X44004Y58404D02*
X45129D01*
X82810Y72810D02*
X83000Y73000D01*
X78857Y72810D02*
X82810D01*
X78775Y72727D02*
X78857Y72810D01*
X75720Y80000D02*
X80500D01*
X75492Y80227D02*
X75720Y80000D01*
X98000Y117000D02*
X98054Y117054D01*
Y120946D01*
X98000Y121000D02*
X98054Y120946D01*
X121500Y46500D02*
X124000Y49000D01*
Y67828D01*
X122828Y69000D02*
X124000Y67828D01*
X117096Y69000D02*
X122828D01*
X117004Y68908D02*
X117096Y69000D01*
D13*
X45501Y17001D02*
X48178D01*
X45501Y22001D02*
X48178D01*
X110980Y84069D02*
X116843D01*
X108327D02*
X110980D01*
X107250Y85146D02*
X108327Y84069D01*
X106500Y76000D02*
X108500Y74000D01*
X105214Y77286D02*
X106500Y76000D01*
X105214Y77714D02*
Y97786D01*
Y77286D02*
Y77714D01*
X93903Y100000D02*
X103000D01*
X105214Y97786D01*
X103500Y102500D02*
X107250Y98750D01*
X99500Y102500D02*
X103500D01*
X97933Y104067D02*
X99500Y102500D01*
X90903Y103000D02*
Y109220D01*
Y103000D02*
X93903Y100000D01*
X94915Y110451D02*
X97933Y107433D01*
X107250Y85146D02*
Y98750D01*
X97933Y104067D02*
Y107433D01*
X108500Y74000D02*
X116912D01*
X117004Y73908D01*
X17160Y55960D02*
X19300Y58100D01*
X5500Y57500D02*
X7040Y55960D01*
X5500Y57500D02*
Y79000D01*
X7040Y55960D02*
X17160D01*
X6975Y80475D02*
X11100D01*
X5500Y79000D02*
X6975Y80475D01*
X5500Y122505D02*
X10757Y127762D01*
X5500Y88301D02*
Y122505D01*
Y88301D02*
X6826Y86975D01*
X10949D01*
X11100Y86825D01*
X10295D02*
X11100D01*
X30806Y98806D02*
X36910D01*
X27856Y95856D02*
X30806Y98806D01*
X27856Y77356D02*
Y95856D01*
X22900Y112225D02*
Y128644D01*
X25660Y131404D01*
X26404D02*
X44504D01*
X25660D02*
X26404D01*
X27500Y122000D02*
X29400Y123900D01*
X27500Y121500D02*
Y122000D01*
X27464Y109464D02*
Y121964D01*
X27000Y109000D02*
X27464Y109464D01*
X29400Y123900D02*
X37004D01*
X23900Y105875D02*
X27178Y109153D01*
X22900Y105875D02*
X23900D01*
X31200Y118700D02*
X36804D01*
X29500Y117000D02*
X31200Y118700D01*
X29500Y102000D02*
Y117000D01*
X27174Y99674D02*
X29500Y102000D01*
X23049Y99674D02*
X27174D01*
X22900Y99525D02*
X23049Y99674D01*
X22900Y67775D02*
X27595D01*
X22725D02*
X22900D01*
X22500Y68000D02*
X22725Y67775D01*
X24500Y74000D02*
X27856Y77356D01*
X23356Y74000D02*
X24500D01*
X36910Y98806D02*
X37004Y98900D01*
X36804Y118700D02*
X37004Y118900D01*
X29892Y70072D02*
Y92964D01*
X27595Y67775D02*
X29892Y70072D01*
Y92964D02*
X30828Y93900D01*
X105867Y104140D02*
X109369Y100639D01*
Y95407D02*
Y100639D01*
Y95407D02*
X110867Y93908D01*
X105867Y104140D02*
Y106571D01*
X110867Y93908D02*
X117004D01*
X102028Y110410D02*
X105867Y106571D01*
X90052Y110071D02*
X90903Y109220D01*
X87421Y110071D02*
X90052D01*
X87041Y110451D02*
X87421Y110071D01*
X116843Y84069D02*
X117004Y83908D01*
X18462Y127762D02*
X18716Y127508D01*
X10757Y127762D02*
X18462D01*
X30828Y93900D02*
X37004D01*
D15*
X22500Y6607D02*
X23406Y7514D01*
X22500Y3500D02*
Y6607D01*
X31000Y3500D02*
X34250Y6750D01*
X34000Y7000D02*
X34750Y7750D01*
X35315Y8315D02*
Y11815D01*
X34250Y6750D02*
X35000Y7500D01*
X35155Y12001D02*
X35501D01*
Y11655D02*
X36500Y10656D01*
X35501Y11655D02*
Y12001D01*
X36500Y7000D02*
Y10656D01*
X34750Y7750D02*
X35315Y8315D01*
X32500Y9500D02*
X35001Y12001D01*
X35315Y11815D02*
X35501Y12001D01*
X22500Y0D02*
Y3500D01*
X30500Y7000D02*
X34000D01*
X28358D02*
X30500D01*
X30169Y6669D02*
X30500Y7000D01*
X30169Y0D02*
Y6669D01*
X27486Y7514D02*
X27500Y7500D01*
X23406Y7514D02*
X27486D01*
X28000Y7358D02*
X28358Y7000D01*
X28000Y7358D02*
Y7500D01*
X35000Y0D02*
X37500D01*
X35745Y22245D02*
Y25245D01*
X35499Y22001D02*
X35501D01*
X35745Y22245D02*
X36500Y23000D01*
X35501Y22001D02*
X35745Y22245D01*
X35501Y22001D02*
Y25245D01*
X33000Y24500D02*
X35499Y22001D01*
X35500Y17000D02*
X35501Y17001D01*
X40500Y11655D02*
Y12000D01*
X40501Y12001D01*
X36500Y23000D02*
Y31500D01*
X36000Y32000D02*
X36500Y31500D01*
X27000Y32000D02*
X36000D01*
X23500Y25500D02*
X25500Y27500D01*
Y30500D01*
X27000Y32000D01*
X35358Y28142D02*
X35501Y27999D01*
X35358Y28142D02*
Y29642D01*
X34500Y30500D02*
X35358Y29642D01*
X40257Y22245D02*
X40501Y22001D01*
X40257Y22245D02*
Y29643D01*
X39503Y30396D02*
X40257Y29643D01*
X39500Y30396D02*
X39503D01*
X101898Y118783D02*
X116217D01*
X104805Y119195D02*
Y131103D01*
Y119195D02*
X105000Y119000D01*
X101773Y118659D02*
X101898Y118783D01*
X116217D02*
X116500Y118500D01*
X118214Y46214D02*
X121214D01*
X115500Y43500D02*
X118214Y46214D01*
X101500Y43500D02*
X115500D01*
X99500Y45500D02*
X101500Y43500D01*
X121214Y46214D02*
X121500Y46500D01*
X99500Y45500D02*
Y51400D01*
X99504Y51404D01*
X117004Y118908D02*
Y123904D01*
X117004Y118908D02*
X117004Y118908D01*
X104504Y131404D02*
X109504D01*
X104504D02*
X104805Y131103D01*
X42514Y0D02*
X43000D01*
X42291D02*
X42514D01*
X40501Y1791D02*
X42291Y0D01*
X40501Y1791D02*
Y12001D01*
D16*
X91060Y58480D02*
X96012D01*
X89504Y56924D02*
X91060Y58480D01*
X96012D02*
X104320D01*
X89504Y51404D02*
Y56924D01*
X104320Y58480D02*
X107020D01*
X104484Y51424D02*
X104504Y51404D01*
X104320Y58480D02*
X104484Y58316D01*
Y51424D02*
Y58316D01*
X109484Y51424D02*
Y56016D01*
X107020Y58480D02*
X109484Y56016D01*
X94524Y56992D02*
X96012Y58480D01*
X94524Y51424D02*
Y56992D01*
X94504Y51404D02*
X94524Y51424D01*
X56437Y66040D02*
X73750D01*
X109504Y51404D02*
X109524Y51384D01*
X94504Y51404D02*
X94504Y51404D01*
X109484Y51424D02*
X109504Y51404D01*
X89504Y51404D02*
X89524Y51424D01*
D19*
X121500Y46500D02*
D03*
Y41500D02*
D03*
X55001Y9001D02*
D03*
Y14001D02*
D03*
D26*
X34500Y35986D02*
D03*
Y30500D02*
D03*
D55*
X17014Y0D02*
D03*
X22500D02*
D03*
X42514D02*
D03*
X48000D02*
D03*
D61*
X22900Y105875D02*
D03*
Y99525D02*
D03*
Y86825D02*
D03*
Y93175D02*
D03*
Y67775D02*
D03*
X11100Y61425D02*
D03*
X22900Y74125D02*
D03*
Y80475D02*
D03*
Y112225D02*
D03*
X11100Y86825D02*
D03*
Y80475D02*
D03*
Y67775D02*
D03*
Y74125D02*
D03*
Y99525D02*
D03*
Y93175D02*
D03*
Y105875D02*
D03*
Y112225D02*
D03*
Y118575D02*
D03*
D62*
X15500Y46500D02*
D03*
X13500Y44000D02*
D03*
X11500Y46500D02*
D03*
X117000Y40000D02*
D03*
X113000D02*
D03*
X37500Y0D02*
D03*
X35501Y17001D02*
D03*
X48351Y22003D02*
D03*
X40532Y17032D02*
D03*
X48351Y17003D02*
D03*
X34500Y35500D02*
D03*
X109504Y131404D02*
D03*
X117004Y123904D02*
D03*
X92000Y44500D02*
D03*
X52750Y76540D02*
D03*
X88000Y62500D02*
D03*
X48500Y13000D02*
D03*
X51000Y8000D02*
D03*
X54300Y7920D02*
D03*
X53500Y5000D02*
D03*
X82040Y44880D02*
D03*
X89000Y79000D02*
D03*
X91200Y81600D02*
D03*
X97000Y83500D02*
D03*
X100000Y83000D02*
D03*
X98000Y92500D02*
D03*
X115500Y48000D02*
D03*
X121500Y41500D02*
D03*
Y46500D02*
D03*
X116500Y69000D02*
D03*
X116882Y118781D02*
D03*
X109649Y118661D02*
D03*
X101773Y118659D02*
D03*
X105000Y40000D02*
D03*
X109000D02*
D03*
X90039Y96850D02*
D03*
X44000Y9500D02*
D03*
X101500Y92500D02*
D03*
X98500Y97000D02*
D03*
X117522Y103911D02*
D03*
X59000Y0D02*
D03*
X64000D02*
D03*
Y4000D02*
D03*
X32160Y15440D02*
D03*
X59000Y14000D02*
D03*
X73000Y44000D02*
D03*
X94784Y118781D02*
D03*
X10500Y134500D02*
D03*
X7000Y131500D02*
D03*
X70250Y66040D02*
D03*
X42500Y44500D02*
D03*
Y41000D02*
D03*
X48175Y119305D02*
D03*
X73750Y59040D02*
D03*
X77250D02*
D03*
X91000Y65500D02*
D03*
X84000Y59000D02*
D03*
X57000Y22000D02*
D03*
X32000Y19000D02*
D03*
X50000Y5000D02*
D03*
X94661Y123659D02*
D03*
X101773Y123659D02*
D03*
X109649Y123661D02*
D03*
X99504Y131404D02*
D03*
X109500Y78000D02*
D03*
X105000Y73000D02*
D03*
X101000Y40000D02*
D03*
X97000D02*
D03*
X93000D02*
D03*
X89000D02*
D03*
X85000D02*
D03*
X81000D02*
D03*
X73000D02*
D03*
X77000D02*
D03*
X66750Y59040D02*
D03*
X57000Y18000D02*
D03*
X77250Y76540D02*
D03*
X80750D02*
D03*
X59745Y90764D02*
D03*
X56245D02*
D03*
X63250Y69540D02*
D03*
X66750Y76540D02*
D03*
X63250Y73040D02*
D03*
X70250Y69540D02*
D03*
X70250Y73040D02*
D03*
X59750Y69540D02*
D03*
X63250Y80040D02*
D03*
X70250Y76540D02*
D03*
Y80040D02*
D03*
X56250Y66040D02*
D03*
X66750Y80040D02*
D03*
X66750Y73040D02*
D03*
X66750Y69540D02*
D03*
X63250Y76540D02*
D03*
X59750Y66040D02*
D03*
X73750Y87040D02*
D03*
X77250Y87040D02*
D03*
X52750Y62540D02*
D03*
Y80040D02*
D03*
X49250D02*
D03*
X56250Y59040D02*
D03*
X46400Y73022D02*
D03*
Y76543D02*
D03*
X44877Y93726D02*
D03*
X44877Y86106D02*
D03*
X80750Y69540D02*
D03*
X77250Y83540D02*
D03*
X59000Y9296D02*
D03*
Y5296D02*
D03*
X19000Y58000D02*
D03*
X123926Y110000D02*
D03*
X117004Y113908D02*
D03*
X89504Y131404D02*
D03*
X123926Y80000D02*
D03*
Y90000D02*
D03*
Y100000D02*
D03*
X117004Y53908D02*
D03*
X109648Y105410D02*
D03*
X102028D02*
D03*
X94915Y105451D02*
D03*
X87144Y105435D02*
D03*
X62175Y111277D02*
D03*
X57984Y111125D02*
D03*
X62150Y100330D02*
D03*
X57150D02*
D03*
X117004Y58908D02*
D03*
X94504Y131404D02*
D03*
D63*
X26500Y15500D02*
D03*
X22500D02*
D03*
X18500D02*
D03*
X16500Y3000D02*
D03*
X7000D02*
D03*
X11500D02*
D03*
X11505Y34999D02*
D03*
X7005D02*
D03*
X37004Y103900D02*
D03*
X64504Y131404D02*
D03*
X69504D02*
D03*
X84504Y131404D02*
D03*
X102028Y110410D02*
D03*
X94915Y110451D02*
D03*
X87041D02*
D03*
X54504Y131404D02*
D03*
X59504D02*
D03*
X37004Y113900D02*
D03*
X74504Y131404D02*
D03*
X79504Y131404D02*
D03*
X18716Y127508D02*
D03*
X49504Y131404D02*
D03*
X37004Y108900D02*
D03*
D64*
X121000Y132000D02*
D03*
D65*
X8800Y9000D02*
D03*
X21500Y40000D02*
D03*
D66*
X45501Y12001D02*
D03*
X35501Y22001D02*
D03*
Y17001D02*
D03*
Y12001D02*
D03*
X40501Y22001D02*
D03*
Y17001D02*
D03*
Y12001D02*
D03*
X45501Y22001D02*
D03*
Y17001D02*
D03*
D67*
X40500Y35331D02*
D03*
Y30500D02*
D03*
D68*
X35000Y0D02*
D03*
X30169D02*
D03*
D69*
X44504Y131404D02*
D03*
X49504D02*
D03*
X54504D02*
D03*
X59504D02*
D03*
X64504D02*
D03*
X69504D02*
D03*
X74504D02*
D03*
X79504Y131404D02*
D03*
X84504D02*
D03*
X89504D02*
D03*
X94504D02*
D03*
X99504D02*
D03*
X104504D02*
D03*
X109504Y51404D02*
D03*
X104504D02*
D03*
X99504D02*
D03*
X94504D02*
D03*
X89504Y51404D02*
D03*
X84504D02*
D03*
X79504D02*
D03*
X74504D02*
D03*
X69504D02*
D03*
X64504D02*
D03*
X59504D02*
D03*
X54504D02*
D03*
X49504D02*
D03*
X44504D02*
D03*
X109504Y131404D02*
D03*
D70*
X117004Y83908D02*
D03*
X117004Y118908D02*
D03*
X117004Y68908D02*
D03*
Y73908D02*
D03*
Y78908D02*
D03*
X117004Y88908D02*
D03*
Y93908D02*
D03*
Y98908D02*
D03*
Y103908D02*
D03*
Y108908D02*
D03*
Y113908D02*
D03*
X117004Y123904D02*
D03*
Y63908D02*
D03*
Y58908D02*
D03*
X37004Y58900D02*
D03*
Y63900D02*
D03*
Y68900D02*
D03*
Y73900D02*
D03*
Y78900D02*
D03*
Y83900D02*
D03*
Y88900D02*
D03*
Y93900D02*
D03*
Y98900D02*
D03*
Y103900D02*
D03*
Y108900D02*
D03*
Y113900D02*
D03*
Y118900D02*
D03*
Y123900D02*
D03*
D71*
X23693Y28006D02*
D03*
M02*
