G04*
G04 #@! TF.GenerationSoftware,Altium Limited,Altium Designer,19.1.9 (167)*
G04*
G04 Layer_Color=16711935*
%FSLAX44Y44*%
%MOMM*%
G71*
G01*
G75*
%ADD36R,0.4700X0.4256*%
%ADD37R,0.5032X0.4532*%
%ADD43R,0.4256X0.4700*%
%ADD53O,0.7532X0.5532*%
%ADD65R,0.7400X2.1000*%
%ADD72C,0.4832*%
%ADD73R,0.4256X0.4047*%
%ADD74R,0.4047X0.4256*%
G04:AMPARAMS|DCode=75|XSize=0.4532mm|YSize=1.1032mm|CornerRadius=0.1641mm|HoleSize=0mm|Usage=FLASHONLY|Rotation=180.000|XOffset=0mm|YOffset=0mm|HoleType=Round|Shape=RoundedRectangle|*
%AMROUNDEDRECTD75*
21,1,0.4532,0.7750,0,0,180.0*
21,1,0.1250,1.1032,0,0,180.0*
1,1,0.3282,-0.0625,0.3875*
1,1,0.3282,0.0625,0.3875*
1,1,0.3282,0.0625,-0.3875*
1,1,0.3282,-0.0625,-0.3875*
%
%ADD75ROUNDEDRECTD75*%
G04:AMPARAMS|DCode=76|XSize=0.4532mm|YSize=1.1032mm|CornerRadius=0.1641mm|HoleSize=0mm|Usage=FLASHONLY|Rotation=90.000|XOffset=0mm|YOffset=0mm|HoleType=Round|Shape=RoundedRectangle|*
%AMROUNDEDRECTD76*
21,1,0.4532,0.7750,0,0,90.0*
21,1,0.1250,1.1032,0,0,90.0*
1,1,0.3282,0.3875,0.0625*
1,1,0.3282,0.3875,-0.0625*
1,1,0.3282,-0.3875,-0.0625*
1,1,0.3282,-0.3875,0.0625*
%
%ADD76ROUNDEDRECTD76*%
D36*
X17014Y0D02*
D03*
X22500D02*
D03*
X42514D02*
D03*
X48000D02*
D03*
D37*
X121500Y46500D02*
D03*
Y41500D02*
D03*
X55001Y9001D02*
D03*
Y14001D02*
D03*
D43*
X34500Y35986D02*
D03*
Y30500D02*
D03*
D53*
X22900Y105875D02*
D03*
Y99525D02*
D03*
Y86825D02*
D03*
Y93175D02*
D03*
Y67775D02*
D03*
X11100Y61425D02*
D03*
X22900Y74125D02*
D03*
Y80475D02*
D03*
Y112225D02*
D03*
X11100Y86825D02*
D03*
Y80475D02*
D03*
Y67775D02*
D03*
Y74125D02*
D03*
Y99525D02*
D03*
Y93175D02*
D03*
Y105875D02*
D03*
Y112225D02*
D03*
Y118575D02*
D03*
D65*
X8800Y9000D02*
D03*
X21500Y40000D02*
D03*
D72*
X45501Y12001D02*
D03*
X35501Y22001D02*
D03*
Y17001D02*
D03*
Y12001D02*
D03*
X40501Y22001D02*
D03*
Y17001D02*
D03*
Y12001D02*
D03*
X45501Y22001D02*
D03*
Y17001D02*
D03*
D73*
X40500Y35331D02*
D03*
Y30500D02*
D03*
D74*
X35000Y0D02*
D03*
X30169D02*
D03*
D75*
X44504Y131404D02*
D03*
X49504D02*
D03*
X54504D02*
D03*
X59504D02*
D03*
X64504D02*
D03*
X69504D02*
D03*
X74504D02*
D03*
X79504Y131404D02*
D03*
X84504D02*
D03*
X89504D02*
D03*
X94504D02*
D03*
X99504D02*
D03*
X104504D02*
D03*
X109504Y51404D02*
D03*
X104504D02*
D03*
X99504D02*
D03*
X94504D02*
D03*
X89504Y51404D02*
D03*
X84504D02*
D03*
X79504D02*
D03*
X74504D02*
D03*
X69504D02*
D03*
X64504D02*
D03*
X59504D02*
D03*
X54504D02*
D03*
X49504D02*
D03*
X44504D02*
D03*
X109504Y131404D02*
D03*
D76*
X117004Y83908D02*
D03*
X117004Y118908D02*
D03*
X117004Y68908D02*
D03*
Y73908D02*
D03*
Y78908D02*
D03*
X117004Y88908D02*
D03*
Y93908D02*
D03*
Y98908D02*
D03*
Y103908D02*
D03*
Y108908D02*
D03*
Y113908D02*
D03*
X117004Y123904D02*
D03*
Y63908D02*
D03*
Y58908D02*
D03*
X37004Y58900D02*
D03*
Y63900D02*
D03*
Y68900D02*
D03*
Y73900D02*
D03*
Y78900D02*
D03*
Y83900D02*
D03*
Y88900D02*
D03*
Y93900D02*
D03*
Y98900D02*
D03*
Y103900D02*
D03*
Y108900D02*
D03*
Y113900D02*
D03*
Y118900D02*
D03*
Y123900D02*
D03*
M02*
