G04*
G04 #@! TF.GenerationSoftware,Altium Limited,Altium Designer,19.1.9 (167)*
G04*
G04 Layer_Color=65535*
%FSLAX44Y44*%
%MOMM*%
G71*
G01*
G75*
%ADD10C,0.1200*%
%ADD11C,0.2000*%
%ADD12C,0.1500*%
%ADD13C,0.1016*%
%ADD14C,0.1000*%
%ADD15C,0.1524*%
%ADD16C,0.2540*%
%ADD17C,0.0400*%
%ADD18C,0.1500*%
G36*
X96150Y10810D02*
X101866D01*
Y3190D01*
X96150D01*
Y10810D01*
D02*
G37*
D10*
X13250Y42500D02*
G03*
X14774Y44024I0J1524D01*
G01*
Y46976D02*
G03*
X13250Y48500I-1524J0D01*
G01*
X4264D02*
G03*
X2740Y46976I0J-1524D01*
G01*
Y44024D02*
G03*
X4264Y42500I1524J0D01*
G01*
X34250Y-2500D02*
G03*
X35774Y-976I0J1524D01*
G01*
Y1976D02*
G03*
X34250Y3500I-1524J0D01*
G01*
X25264D02*
G03*
X23740Y1976I0J-1524D01*
G01*
Y-976D02*
G03*
X25264Y-2500I1524J0D01*
G01*
X40750Y3000D02*
G03*
X39226Y1476I0J-1524D01*
G01*
Y-1476D02*
G03*
X40750Y-3000I1524J0D01*
G01*
X49736D02*
G03*
X51260Y-1476I0J1524D01*
G01*
Y1476D02*
G03*
X49736Y3000I-1524J0D01*
G01*
X14774Y44024D02*
Y46976D01*
X10169Y48500D02*
X13250D01*
X10169Y42500D02*
X13250D01*
X4264D02*
X7345D01*
X4264Y48500D02*
X7345D01*
X2740Y44024D02*
Y46976D01*
X35774Y-976D02*
Y1976D01*
X31169Y3500D02*
X34250D01*
X31169Y-2500D02*
X34250D01*
X25264D02*
X28345D01*
X25264Y3500D02*
X28345D01*
X23740Y-976D02*
Y1976D01*
X39226Y-1476D02*
Y1476D01*
X40750Y-3000D02*
X43831D01*
X40750Y3000D02*
X43831D01*
X46655D02*
X49736D01*
X46655Y-3000D02*
X49736D01*
X51260Y-1476D02*
Y1476D01*
D11*
X28245Y29700D02*
G03*
X28245Y29700I-1000J0D01*
G01*
X45690Y50980D02*
G03*
X45690Y50980I-1000J0D01*
G01*
X44690Y55540D02*
X49250Y50980D01*
X85310D01*
X85310Y91600D02*
X85310Y50980D01*
X44690Y91600D02*
X85310D01*
X44690Y55540D02*
Y91600D01*
X49906Y26035D02*
Y34418D01*
X41270Y26035D02*
X49652D01*
D12*
X83600Y104304D02*
G03*
X83600Y104304I-749J0D01*
G01*
D13*
X125001Y45268D02*
Y49999D01*
X125002Y42729D02*
X125002Y37998D01*
X118000Y50000D02*
X118000Y45269D01*
X118001Y37999D02*
X118001Y42730D01*
X118001Y37999D02*
X125001D01*
X118001Y49999D02*
X125001D01*
X94000Y64000D02*
X106000Y64000D01*
X94000Y71000D02*
X106000Y71000D01*
X106000Y64000D01*
X94000Y64000D02*
X94000Y71000D01*
X102501Y75499D02*
X102501Y87499D01*
X109501Y75499D02*
X109501Y87499D01*
X102501Y75499D02*
X109501Y75499D01*
X102501Y87499D02*
X109501Y87499D01*
X31268Y3499D02*
X35999D01*
X23998Y3498D02*
X28729Y3498D01*
X31269Y10500D02*
X36000Y10500D01*
X23999Y10499D02*
X28730D01*
X23999Y3499D02*
Y10499D01*
X35999Y10499D02*
X35999Y3499D01*
X106149Y115161D02*
X113149D01*
X106149Y127161D02*
X113149Y127161D01*
Y122430D02*
Y127161D01*
X113150Y115160D02*
Y119891D01*
X106148Y122431D02*
Y127162D01*
X106149Y115161D02*
Y119892D01*
X105501Y62409D02*
X112501D01*
X105501Y50409D02*
X112501Y50409D01*
X112501Y62409D01*
X105501D02*
X105501Y50409D01*
X98273Y115159D02*
Y119890D01*
X98272Y122429D02*
Y127160D01*
X105274Y115158D02*
Y119889D01*
X105273Y127159D02*
X105273Y122428D01*
X98273Y127159D02*
X105273Y127159D01*
X98273Y115159D02*
X105273Y115159D01*
X83644Y101935D02*
X90644Y101935D01*
X83644Y113935D02*
X90644Y113935D01*
X83644Y101935D02*
X83644Y113935D01*
X90644Y101935D02*
X90644Y113935D01*
X91499Y38001D02*
Y42732D01*
X91498Y45271D02*
Y50002D01*
X98500Y42731D02*
X98500Y38000D01*
X98499Y45270D02*
Y50001D01*
X91499D02*
X98499D01*
X91499Y38001D02*
X98499D01*
X75040Y37820D02*
Y42551D01*
X75039Y45090D02*
Y49821D01*
X82041Y37819D02*
Y42550D01*
X82040Y49820D02*
X82040Y45089D01*
X75040Y49820D02*
X82040D01*
X75040Y37820D02*
X82040Y37820D01*
X81539Y100350D02*
X86270D01*
X88809Y100351D02*
X93540D01*
X81538Y93349D02*
X86269Y93349D01*
X88808Y93350D02*
X93539Y93350D01*
Y100350D01*
X81539D02*
X81539Y93350D01*
X98531Y49999D02*
X105531D01*
X98531Y37999D02*
X105531D01*
X98531D02*
Y42730D01*
X98530Y50000D02*
X98530Y45269D01*
X105532Y37998D02*
X105532Y42729D01*
X105531Y45268D02*
X105531Y49999D01*
X84501Y49999D02*
X91501D01*
X84501Y37999D02*
X91501Y37999D01*
X84501Y37999D02*
X84501Y42730D01*
X84500Y50000D02*
X84500Y45269D01*
X91502Y37998D02*
X91502Y42729D01*
X91501Y45268D02*
X91501Y49999D01*
X105499Y38001D02*
X112499Y38001D01*
X105499Y50001D02*
X112499D01*
X112499Y45270D01*
X112500Y42731D02*
X112500Y38000D01*
X105498Y45271D02*
Y50002D01*
X105499Y38001D02*
Y42732D01*
X42501Y83504D02*
Y88235D01*
X42502Y76234D02*
Y80965D01*
X35500Y88236D02*
X35500Y83505D01*
X35501Y76235D02*
Y80966D01*
Y76235D02*
X42501D01*
X35501Y88235D02*
X42501D01*
X35499Y89228D02*
X42499D01*
X35499Y101228D02*
X42499Y101228D01*
Y96497D02*
Y101228D01*
X42500Y93958D02*
X42500Y89227D01*
X35498Y96498D02*
X35498Y101229D01*
X35499Y89228D02*
Y93959D01*
X113504Y50408D02*
X120504Y50408D01*
X113504Y62408D02*
X120504D01*
X120504Y57677D01*
X120505Y50407D02*
Y55138D01*
X113503Y57678D02*
Y62409D01*
X113504Y50408D02*
Y55139D01*
X91415Y101951D02*
X98415D01*
X91415Y113951D02*
X98415Y113951D01*
X91415Y101951D02*
X91415Y113951D01*
X98415Y101951D02*
Y113951D01*
X106148Y101910D02*
X113148D01*
X106148Y113910D02*
X113148Y113910D01*
X106148Y101910D02*
X106148Y113910D01*
X113148Y101910D02*
Y113910D01*
X98528Y101910D02*
X105528D01*
X98528Y113910D02*
X105528Y113910D01*
X98528Y101910D02*
X98528Y113910D01*
X105528Y101910D02*
X105528Y113910D01*
X32001Y26001D02*
X36732D01*
X39271Y26002D02*
X44002Y26002D01*
X32000Y19000D02*
X36731D01*
X39270Y19001D02*
X44001D01*
Y26001D01*
X32001Y19001D02*
Y26001D01*
X29500Y56727D02*
X34231D01*
X36770Y56728D02*
X41501Y56728D01*
X29499Y49727D02*
X34230D01*
X36769Y49728D02*
X41500D01*
Y56727D01*
X29500Y49728D02*
Y56727D01*
X42500Y75227D02*
X42500Y63228D01*
X35500Y63228D02*
Y75227D01*
X42500D01*
X35500Y63228D02*
X42500Y63228D01*
X98529Y50428D02*
X105529Y50428D01*
X98529Y62428D02*
X105529Y62428D01*
X98529Y50428D02*
X98529Y62428D01*
X105529Y50428D02*
X105529Y62428D01*
X91499Y50428D02*
X98499D01*
X91499Y62428D02*
X98499Y62428D01*
X91499Y50428D02*
Y62428D01*
X98499Y50428D02*
Y62428D01*
X89000Y79000D02*
X89000Y72000D01*
X101000Y72000D02*
Y79000D01*
X96269Y72000D02*
X101000Y72000D01*
X88999Y71999D02*
X93730D01*
X96270Y79001D02*
X101001D01*
X89000Y79000D02*
X93731D01*
X107000Y93500D02*
X107000Y100500D01*
X95000Y100500D02*
X95000Y93500D01*
X95000Y100500D02*
X99731D01*
X102270Y100501D02*
X107001D01*
X94999Y93499D02*
X99730D01*
X102269Y93500D02*
X107000Y93500D01*
X117500Y87500D02*
X117500Y75500D01*
X110500Y75500D02*
Y87500D01*
X117500D01*
X110500Y75500D02*
X117500Y75500D01*
X32499Y121001D02*
X39499Y121001D01*
X32499Y133001D02*
X39499D01*
Y128270D02*
Y133001D01*
X39500Y121000D02*
X39500Y125731D01*
X32498Y133002D02*
X32498Y128271D01*
X32499Y121001D02*
Y125732D01*
X91161Y115159D02*
Y119890D01*
X91160Y122429D02*
Y127160D01*
X98162Y119889D02*
X98162Y115158D01*
X98161Y127159D02*
X98161Y122428D01*
X91161Y127159D02*
X98161Y127159D01*
X91161Y115159D02*
X98161Y115159D01*
X66749Y36000D02*
X66749Y29000D01*
X54749D02*
Y36000D01*
X59480D01*
X62019Y36001D02*
X66750Y36001D01*
X54748Y28999D02*
X59479Y28999D01*
X62018Y29000D02*
X66749Y29000D01*
D14*
X89500Y81500D02*
Y91500D01*
X93500Y81500D02*
X95500D01*
X99500D02*
Y91500D01*
X93500D02*
X95500D01*
X39000Y9000D02*
Y11000D01*
Y15000D02*
X49000D01*
Y9000D02*
Y11000D01*
X39000Y5000D02*
X49000D01*
X109700Y63900D02*
X113150Y63900D01*
X108000Y75500D02*
X108000Y71500D01*
X108000Y75500D02*
X114000D01*
Y65500D02*
Y75500D01*
X109000Y65500D02*
X114000D01*
X108000Y66500D02*
X109000Y65500D01*
X108000Y66500D02*
Y72500D01*
X32500Y57727D02*
X38500D01*
X39500Y58727D01*
Y63727D01*
X29500D02*
X39500D01*
X29500Y57727D02*
Y63727D01*
Y57727D02*
X33500Y57727D01*
X41100Y62877D02*
X41100Y59427D01*
D15*
X109500Y29590D02*
Y36078D01*
X117500D01*
Y29590D02*
Y36078D01*
X109500Y18578D02*
Y25066D01*
Y18578D02*
X117500D01*
Y25066D01*
X67156Y44919D02*
Y50127D01*
X59344D02*
X67156D01*
X59344Y44919D02*
Y50127D01*
X67156Y36386D02*
Y44919D01*
X59344Y36386D02*
X67156D01*
X59344D02*
Y44919D01*
X77912Y125067D02*
X77912Y122610D01*
X70455Y125067D02*
X77912Y125067D01*
X77912Y98543D02*
Y101000D01*
X70455Y98543D02*
X77912Y98543D01*
X46388Y122610D02*
X46388Y125067D01*
X53845D01*
X46388Y101000D02*
X46388Y98543D01*
X53845D01*
X67156Y23419D02*
Y28627D01*
X59344Y28627D02*
X67156Y28627D01*
X59344Y28627D02*
X59344Y23419D01*
X67156Y14886D02*
Y23419D01*
X59344Y14886D02*
X67156Y14886D01*
X59344Y14886D02*
Y23419D01*
D16*
X22505Y27812D02*
Y38000D01*
X1505Y10260D02*
Y27744D01*
X19855Y38000D02*
X22455Y38050D01*
X22505Y-0D02*
Y10207D01*
X19904Y-50D02*
X22505Y-0D01*
X86500Y-1000D02*
X118500Y-1000D01*
X86500Y15000D02*
X118500Y15000D01*
D17*
X111000Y70500D02*
Y71000D01*
X110000Y70500D02*
X112001D01*
X34500Y59728D02*
Y61728D01*
X34000Y60728D02*
X34500D01*
D18*
X31110Y27306D02*
X31110Y49150D01*
X31110Y27306D02*
X48890Y27306D01*
Y49150D01*
X31110Y49150D02*
X48890Y49150D01*
X31429Y12000D02*
Y17142D01*
X27071Y39142D02*
Y34000D01*
X24500Y36571D02*
X29642D01*
X18285Y129571D02*
X17999Y130142D01*
X17428Y130713D01*
X16856Y130999D01*
X15714D01*
X15143Y130713D01*
X14571Y130142D01*
X14286Y129571D01*
X14000Y128714D01*
Y127285D01*
X14286Y126428D01*
X14571Y125857D01*
X15143Y125286D01*
X15714Y125000D01*
X16856D01*
X17428Y125286D01*
X17999Y125857D01*
X18285Y126428D01*
Y127285D01*
X16856D02*
X18285D01*
X19656Y130999D02*
Y125000D01*
Y130999D02*
X23655Y125000D01*
Y130999D02*
Y125000D01*
X25312Y130999D02*
Y125000D01*
Y130999D02*
X27311D01*
X28168Y130713D01*
X28740Y130142D01*
X29025Y129571D01*
X29311Y128714D01*
Y127285D01*
X29025Y126428D01*
X28740Y125857D01*
X28168Y125286D01*
X27311Y125000D01*
X25312D01*
X15000Y60499D02*
Y54500D01*
Y60499D02*
X17571D01*
X18428Y60213D01*
X18714Y59927D01*
X18999Y59356D01*
Y58785D01*
X18714Y58214D01*
X18428Y57928D01*
X17571Y57642D01*
X15000D01*
X17000D02*
X18999Y54500D01*
X24055Y60499D02*
X20342D01*
Y54500D01*
X24055D01*
X20342Y57642D02*
X22627D01*
X25055Y60499D02*
Y54500D01*
Y60499D02*
X28768D01*
X25055Y57642D02*
X27340D01*
X32499Y116501D02*
X26500Y119357D01*
X32499Y120500D02*
Y116501D01*
X29071Y115158D02*
Y110016D01*
X32499Y106532D02*
X32213Y107389D01*
X31356Y107960D01*
X29928Y108245D01*
X29071D01*
X27643Y107960D01*
X26786Y107389D01*
X26500Y106532D01*
Y105960D01*
X26786Y105103D01*
X27643Y104532D01*
X29071Y104246D01*
X29928D01*
X31356Y104532D01*
X32213Y105103D01*
X32499Y105960D01*
Y106532D01*
X39999Y119572D02*
X39713Y120429D01*
X39142Y120714D01*
X38570D01*
X37999Y120429D01*
X37713Y119857D01*
X37428Y118715D01*
X37142Y117858D01*
X36571Y117287D01*
X36000Y117001D01*
X35143D01*
X34571Y117287D01*
X34286Y117572D01*
X34000Y118429D01*
Y119572D01*
X34286Y120429D01*
X34571Y120714D01*
X35143Y121000D01*
X36000D01*
X36571Y120714D01*
X37142Y120143D01*
X37428Y119286D01*
X37713Y118144D01*
X37999Y117572D01*
X38570Y117287D01*
X39142D01*
X39713Y117572D01*
X39999Y118429D01*
Y119572D01*
X36571Y115658D02*
Y110517D01*
X38856Y108745D02*
X39142Y108174D01*
X39999Y107317D01*
X34000D01*
X39999Y100919D02*
Y103775D01*
X37428Y104061D01*
X37713Y103775D01*
X37999Y102918D01*
Y102061D01*
X37713Y101204D01*
X37142Y100633D01*
X36285Y100347D01*
X35714D01*
X34857Y100633D01*
X34286Y101204D01*
X34000Y102061D01*
Y102918D01*
X34286Y103775D01*
X34571Y104061D01*
X35143Y104347D01*
X123429Y118285D02*
X122858Y117999D01*
X122287Y117428D01*
X122001Y116856D01*
Y115714D01*
X122287Y115143D01*
X122858Y114571D01*
X123429Y114286D01*
X124286Y114000D01*
X125715D01*
X126572Y114286D01*
X127143Y114571D01*
X127714Y115143D01*
X128000Y115714D01*
Y116856D01*
X127714Y117428D01*
X127143Y117999D01*
X126572Y118285D01*
X125715D01*
Y116856D02*
Y118285D01*
X122001Y119656D02*
X128000D01*
X122001D02*
X128000Y123655D01*
X122001D02*
X128000D01*
X122001Y125312D02*
X128000D01*
X122001D02*
Y127311D01*
X122287Y128168D01*
X122858Y128740D01*
X123429Y129025D01*
X124286Y129311D01*
X125715D01*
X126572Y129025D01*
X127143Y128740D01*
X127714Y128168D01*
X128000Y127311D01*
Y125312D01*
X122001Y51000D02*
X128000Y53285D01*
X122001Y55571D02*
X128000Y53285D01*
X122001Y56342D02*
X128000D01*
X122001D02*
Y58341D01*
X122287Y59198D01*
X122858Y59770D01*
X123429Y60055D01*
X124286Y60341D01*
X125715D01*
X126572Y60055D01*
X127143Y59770D01*
X127714Y59198D01*
X128000Y58341D01*
Y56342D01*
X122001Y61683D02*
X128000D01*
X122001D02*
Y63683D01*
X122287Y64540D01*
X122858Y65111D01*
X123429Y65397D01*
X124286Y65683D01*
X125715D01*
X126572Y65397D01*
X127143Y65111D01*
X127714Y64540D01*
X128000Y63683D01*
Y61683D01*
M02*
