G04*
G04 #@! TF.GenerationSoftware,Altium Limited,Altium Designer,19.1.9 (167)*
G04*
G04 Layer_Physical_Order=3*
G04 Layer_Color=36540*
%FSLAX44Y44*%
%MOMM*%
G71*
G01*
G75*
%ADD11C,0.2000*%
%ADD13C,0.1016*%
%ADD15C,0.1524*%
%ADD61O,0.5500X0.3500*%
%ADD62C,0.2500*%
%ADD63C,0.3000*%
%ADD64C,0.4000*%
G36*
X58332Y133302D02*
X58440Y133217D01*
X58553Y133143D01*
X58671Y133078D01*
X58795Y133024D01*
X58923Y132979D01*
X59057Y132945D01*
X59196Y132921D01*
X59340Y132907D01*
X59489Y132904D01*
X58004Y131419D01*
X58001Y131568D01*
X57987Y131712D01*
X57963Y131851D01*
X57929Y131985D01*
X57884Y132113D01*
X57830Y132237D01*
X57765Y132355D01*
X57691Y132468D01*
X57606Y132576D01*
X57510Y132679D01*
X58229Y133398D01*
X58332Y133302D01*
D02*
G37*
G36*
X69489Y129904D02*
X69340Y129900D01*
X69196Y129887D01*
X69057Y129863D01*
X68923Y129829D01*
X68795Y129784D01*
X68671Y129730D01*
X68553Y129665D01*
X68440Y129591D01*
X68332Y129506D01*
X68229Y129410D01*
X67510Y130129D01*
X67606Y130232D01*
X67691Y130340D01*
X67765Y130453D01*
X67830Y130571D01*
X67884Y130694D01*
X67929Y130823D01*
X67963Y130957D01*
X67987Y131096D01*
X68001Y131240D01*
X68004Y131389D01*
X69489Y129904D01*
D02*
G37*
G36*
X19893Y128458D02*
X20005Y128366D01*
X20120Y128285D01*
X20239Y128215D01*
X20361Y128155D01*
X20487Y128106D01*
X20617Y128069D01*
X20749Y128042D01*
X20886Y128025D01*
X21026Y128020D01*
X21029Y127004D01*
X20889Y126999D01*
X20752Y126982D01*
X20619Y126955D01*
X20490Y126917D01*
X20364Y126868D01*
X20242Y126809D01*
X20124Y126738D01*
X20009Y126656D01*
X19898Y126564D01*
X19790Y126461D01*
X19784Y128561D01*
X19893Y128458D01*
D02*
G37*
G36*
X56257Y99455D02*
X56183Y99525D01*
X56102Y99587D01*
X56016Y99642D01*
X55925Y99690D01*
X55828Y99730D01*
X55725Y99763D01*
X55616Y99789D01*
X55503Y99807D01*
X55383Y99818D01*
X55258Y99822D01*
Y100838D01*
X55383Y100842D01*
X55503Y100853D01*
X55616Y100871D01*
X55725Y100897D01*
X55828Y100930D01*
X55925Y100970D01*
X56016Y101018D01*
X56102Y101073D01*
X56183Y101135D01*
X56257Y101205D01*
Y99455D01*
D02*
G37*
G36*
X8736Y98526D02*
X8723Y98619D01*
X8684Y98703D01*
X8619Y98776D01*
X8528Y98840D01*
X8410Y98894D01*
X8267Y98938D01*
X8097Y98973D01*
X7901Y98997D01*
X7680Y99012D01*
X7432Y99017D01*
Y100033D01*
X7680Y100038D01*
X8097Y100077D01*
X8267Y100112D01*
X8410Y100156D01*
X8528Y100210D01*
X8619Y100274D01*
X8684Y100347D01*
X8723Y100431D01*
X8736Y100524D01*
Y98526D01*
D02*
G37*
G36*
X62975Y99379D02*
X62913Y99298D01*
X62860Y99211D01*
X62813Y99118D01*
X62773Y99020D01*
X62741Y98917D01*
X62716Y98808D01*
X62698Y98694D01*
X62687Y98575D01*
X62683Y98449D01*
X61667Y98427D01*
X61664Y98552D01*
X61652Y98672D01*
X61634Y98785D01*
X61607Y98893D01*
X61574Y98996D01*
X61533Y99092D01*
X61484Y99183D01*
X61428Y99267D01*
X61364Y99346D01*
X61293Y99420D01*
X63043Y99455D01*
X62975Y99379D01*
D02*
G37*
G36*
X60501Y91769D02*
X60590Y91725D01*
X60684Y91685D01*
X60782Y91651D01*
X60884Y91622D01*
X60991Y91598D01*
X61102Y91580D01*
X61338Y91559D01*
X61462Y91556D01*
X61725Y90540D01*
X61598Y90536D01*
X61479Y90523D01*
X61368Y90502D01*
X61266Y90472D01*
X61170Y90434D01*
X61083Y90387D01*
X61004Y90332D01*
X60932Y90268D01*
X60869Y90196D01*
X60813Y90115D01*
X60416Y91819D01*
X60501Y91769D01*
D02*
G37*
G36*
X50055Y79073D02*
X49993Y78992D01*
X49938Y78906D01*
X49890Y78815D01*
X49850Y78718D01*
X49817Y78615D01*
X49791Y78506D01*
X49773Y78393D01*
X49762Y78273D01*
X49758Y78148D01*
X48742D01*
X48738Y78273D01*
X48727Y78393D01*
X48709Y78506D01*
X48683Y78615D01*
X48650Y78718D01*
X48610Y78815D01*
X48562Y78906D01*
X48507Y78992D01*
X48445Y79073D01*
X48375Y79147D01*
X50125D01*
X50055Y79073D01*
D02*
G37*
G36*
X46980Y78400D02*
X46983Y78275D01*
X46994Y78155D01*
X47011Y78041D01*
X47035Y77931D01*
X47066Y77827D01*
X47104Y77728D01*
X47149Y77634D01*
X47201Y77545D01*
X47259Y77462D01*
X47325Y77383D01*
X45578Y77484D01*
X45651Y77555D01*
X45717Y77631D01*
X45775Y77714D01*
X45825Y77803D01*
X45867Y77898D01*
X45902Y77999D01*
X45929Y78106D01*
X45949Y78219D01*
X45960Y78339D01*
X45964Y78464D01*
X46980Y78400D01*
D02*
G37*
G36*
X45507Y72147D02*
X45433Y72217D01*
X45352Y72280D01*
X45266Y72335D01*
X45175Y72382D01*
X45078Y72423D01*
X44975Y72456D01*
X44866Y72481D01*
X44753Y72500D01*
X44633Y72511D01*
X44508Y72514D01*
Y73530D01*
X44633Y73534D01*
X44753Y73545D01*
X44866Y73563D01*
X44975Y73589D01*
X45078Y73622D01*
X45175Y73663D01*
X45266Y73710D01*
X45352Y73765D01*
X45433Y73828D01*
X45507Y73897D01*
Y72147D01*
D02*
G37*
G36*
X13715Y68057D02*
X13707Y67949D01*
X13722Y67830D01*
X13762Y67702D01*
X13826Y67563D01*
X13914Y67414D01*
X14025Y67255D01*
X14161Y67085D01*
X14504Y66715D01*
X14002Y65779D01*
X13822Y65953D01*
X13503Y66214D01*
X13365Y66302D01*
X13242Y66362D01*
X13132Y66394D01*
X13037Y66397D01*
X12956Y66371D01*
X12889Y66318D01*
X12836Y66235D01*
X13747Y68154D01*
X13715Y68057D01*
D02*
G37*
G36*
X55357Y58165D02*
X55283Y58235D01*
X55202Y58297D01*
X55116Y58352D01*
X55025Y58400D01*
X54928Y58440D01*
X54825Y58473D01*
X54717Y58499D01*
X54603Y58517D01*
X54483Y58528D01*
X54358Y58532D01*
Y59548D01*
X54483Y59552D01*
X54603Y59563D01*
X54717Y59581D01*
X54825Y59607D01*
X54928Y59640D01*
X55025Y59680D01*
X55116Y59728D01*
X55202Y59783D01*
X55283Y59845D01*
X55357Y59915D01*
Y58165D01*
D02*
G37*
G36*
X49909Y23245D02*
X49823Y23152D01*
X49748Y23059D01*
X49684Y22966D01*
X49632Y22872D01*
X49592Y22778D01*
X49564Y22683D01*
X49547Y22588D01*
X49541Y22492D01*
X49547Y22396D01*
X49565Y22299D01*
X48079Y23223D01*
X48174Y23248D01*
X48269Y23280D01*
X48363Y23318D01*
X48457Y23363D01*
X48550Y23415D01*
X48642Y23474D01*
X48734Y23540D01*
X48915Y23691D01*
X49005Y23777D01*
X49909Y23245D01*
D02*
G37*
G36*
X50048Y17982D02*
X49962Y17891D01*
X49885Y17799D01*
X49818Y17705D01*
X49759Y17610D01*
X49710Y17514D01*
X49670Y17417D01*
X49639Y17319D01*
X49617Y17219D01*
X49604Y17118D01*
X49601Y17016D01*
X48363Y18253D01*
X48465Y18257D01*
X48566Y18270D01*
X48666Y18291D01*
X48765Y18322D01*
X48862Y18362D01*
X48958Y18412D01*
X49053Y18470D01*
X49146Y18538D01*
X49238Y18615D01*
X49330Y18700D01*
X50048Y17982D01*
D02*
G37*
G36*
X40519Y15782D02*
X40484Y15777D01*
X40442Y15762D01*
X40392Y15736D01*
X40335Y15700D01*
X40271Y15653D01*
X40120Y15528D01*
X39941Y15361D01*
X39840Y15262D01*
X38762Y16340D01*
X38861Y16441D01*
X39153Y16770D01*
X39200Y16835D01*
X39236Y16892D01*
X39262Y16942D01*
X39277Y16984D01*
X39282Y17019D01*
X40519Y15782D01*
D02*
G37*
G36*
X38263Y1600D02*
X38290Y1160D01*
X38303Y1082D01*
X38317Y1015D01*
X38334Y962D01*
X38354Y921D01*
X38375Y893D01*
X36625D01*
X36646Y921D01*
X36666Y962D01*
X36683Y1015D01*
X36697Y1082D01*
X36710Y1160D01*
X36728Y1355D01*
X36737Y1600D01*
X36738Y1741D01*
X38262D01*
X38263Y1600D01*
D02*
G37*
G36*
X74258Y60932D02*
X74262Y60807D01*
X74273Y60687D01*
X74291Y60574D01*
X74317Y60465D01*
X74350Y60362D01*
X74390Y60265D01*
X74438Y60174D01*
X74493Y60088D01*
X74555Y60007D01*
X74625Y59933D01*
X72875D01*
X72945Y60007D01*
X73007Y60088D01*
X73062Y60174D01*
X73110Y60265D01*
X73150Y60362D01*
X73183Y60465D01*
X73209Y60574D01*
X73227Y60687D01*
X73238Y60807D01*
X73242Y60932D01*
X74258D01*
D02*
G37*
G36*
X77758D02*
X77762Y60807D01*
X77773Y60687D01*
X77791Y60574D01*
X77817Y60465D01*
X77850Y60362D01*
X77890Y60265D01*
X77938Y60174D01*
X77993Y60088D01*
X78055Y60007D01*
X78125Y59933D01*
X76375D01*
X76445Y60007D01*
X76507Y60088D01*
X76562Y60174D01*
X76610Y60265D01*
X76650Y60362D01*
X76683Y60465D01*
X76709Y60574D01*
X76727Y60687D01*
X76738Y60807D01*
X76742Y60932D01*
X77758D01*
D02*
G37*
G36*
Y78250D02*
X77787Y77669D01*
X76713D01*
X76719Y77677D01*
X76724Y77696D01*
X76728Y77727D01*
X76735Y77821D01*
X76742Y78250D01*
X77758D01*
D02*
G37*
G36*
X81729Y74843D02*
X81638Y74929D01*
X81545Y75005D01*
X81452Y75073D01*
X81357Y75132D01*
X81261Y75181D01*
X81164Y75221D01*
X81065Y75252D01*
X80966Y75274D01*
X80865Y75286D01*
X80763Y75290D01*
X82000Y76528D01*
X82003Y76425D01*
X82016Y76324D01*
X82038Y76225D01*
X82069Y76126D01*
X82109Y76029D01*
X82158Y75933D01*
X82217Y75838D01*
X82284Y75745D01*
X82361Y75652D01*
X82447Y75561D01*
X81729Y74843D01*
D02*
G37*
G36*
X83492Y57108D02*
X83488Y57233D01*
X83477Y57353D01*
X83459Y57467D01*
X83433Y57575D01*
X83400Y57678D01*
X83360Y57775D01*
X83312Y57866D01*
X83257Y57952D01*
X83195Y58033D01*
X83125Y58107D01*
X84875D01*
X84805Y58033D01*
X84743Y57952D01*
X84688Y57866D01*
X84640Y57775D01*
X84600Y57678D01*
X84567Y57575D01*
X84541Y57467D01*
X84523Y57353D01*
X84512Y57233D01*
X84508Y57108D01*
X83492D01*
D02*
G37*
G36*
X87492Y60608D02*
X87488Y60733D01*
X87477Y60853D01*
X87459Y60967D01*
X87433Y61075D01*
X87400Y61178D01*
X87360Y61275D01*
X87312Y61366D01*
X87257Y61452D01*
X87195Y61533D01*
X87125Y61607D01*
X88875D01*
X88805Y61533D01*
X88743Y61452D01*
X88688Y61366D01*
X88640Y61275D01*
X88600Y61178D01*
X88567Y61075D01*
X88541Y60967D01*
X88523Y60853D01*
X88512Y60733D01*
X88508Y60608D01*
X87492D01*
D02*
G37*
G36*
X92697Y66479D02*
X92611Y66388D01*
X92535Y66295D01*
X92467Y66202D01*
X92409Y66107D01*
X92359Y66011D01*
X92319Y65914D01*
X92288Y65815D01*
X92266Y65716D01*
X92254Y65615D01*
X92250Y65512D01*
X91012Y66750D01*
X91115Y66754D01*
X91216Y66766D01*
X91315Y66788D01*
X91414Y66819D01*
X91511Y66859D01*
X91607Y66908D01*
X91702Y66967D01*
X91795Y67035D01*
X91888Y67111D01*
X91979Y67197D01*
X92697Y66479D01*
D02*
G37*
G36*
X122149Y79368D02*
X122236Y79458D01*
X122388Y79639D01*
X122454Y79730D01*
X122513Y79822D01*
X122566Y79914D01*
X122612Y80007D01*
X122651Y80100D01*
X122684Y80194D01*
X122709Y80289D01*
X123612Y78790D01*
X123517Y78809D01*
X123421Y78816D01*
X123326Y78812D01*
X123231Y78795D01*
X123137Y78767D01*
X123043Y78728D01*
X122949Y78676D01*
X122856Y78613D01*
X122763Y78538D01*
X122670Y78452D01*
X122149Y79368D01*
D02*
G37*
G36*
X90358Y130483D02*
X90338Y130442D01*
X90321Y130388D01*
X90307Y130322D01*
X90294Y130244D01*
X90276Y130049D01*
X90267Y129804D01*
X90266Y129663D01*
X88742D01*
X88741Y129804D01*
X88714Y130244D01*
X88701Y130322D01*
X88687Y130388D01*
X88670Y130442D01*
X88651Y130483D01*
X88629Y130511D01*
X90379D01*
X90358Y130483D01*
D02*
G37*
G36*
X85526Y130289D02*
X85439Y130171D01*
X85362Y130050D01*
X85296Y129927D01*
X85239Y129801D01*
X85193Y129672D01*
X85158Y129541D01*
X85132Y129407D01*
X85117Y129271D01*
X85112Y129132D01*
X84096Y129061D01*
X84090Y129202D01*
X84073Y129338D01*
X84045Y129470D01*
X84005Y129598D01*
X83954Y129721D01*
X83891Y129839D01*
X83817Y129952D01*
X83732Y130061D01*
X83635Y130166D01*
X83527Y130265D01*
X85623Y130405D01*
X85526Y130289D01*
D02*
G37*
G36*
X103281Y105295D02*
X103294Y105194D01*
X103316Y105095D01*
X103347Y104996D01*
X103387Y104899D01*
X103436Y104803D01*
X103495Y104708D01*
X103562Y104615D01*
X103639Y104522D01*
X103725Y104431D01*
X103007Y103713D01*
X102916Y103799D01*
X102823Y103876D01*
X102730Y103943D01*
X102635Y104002D01*
X102539Y104051D01*
X102442Y104091D01*
X102343Y104122D01*
X102244Y104144D01*
X102143Y104157D01*
X102041Y104160D01*
X103278Y105398D01*
X103281Y105295D01*
D02*
G37*
G36*
X87949Y104468D02*
X87886Y104388D01*
X87831Y104302D01*
X87784Y104210D01*
X87743Y104113D01*
X87710Y104010D01*
X87685Y103902D01*
X87666Y103788D01*
X87655Y103668D01*
X87652Y103543D01*
X86636D01*
X86632Y103668D01*
X86621Y103788D01*
X86603Y103902D01*
X86577Y104010D01*
X86544Y104113D01*
X86503Y104210D01*
X86456Y104302D01*
X86401Y104388D01*
X86338Y104468D01*
X86269Y104543D01*
X88019D01*
X87949Y104468D01*
D02*
G37*
G36*
X110453Y104443D02*
X110391Y104362D01*
X110336Y104276D01*
X110288Y104185D01*
X110248Y104088D01*
X110215Y103985D01*
X110189Y103876D01*
X110171Y103763D01*
X110160Y103643D01*
X110156Y103518D01*
X109140D01*
X109136Y103643D01*
X109125Y103763D01*
X109107Y103876D01*
X109081Y103985D01*
X109048Y104088D01*
X109008Y104185D01*
X108960Y104276D01*
X108905Y104362D01*
X108843Y104443D01*
X108773Y104517D01*
X110523D01*
X110453Y104443D01*
D02*
G37*
G36*
X95833Y104590D02*
X95779Y104504D01*
X95731Y104412D01*
X95690Y104316D01*
X95655Y104215D01*
X95627Y104110D01*
X95605Y104000D01*
X95589Y103884D01*
X95580Y103765D01*
X95576Y103640D01*
X94560Y103502D01*
X94556Y103628D01*
X94544Y103747D01*
X94524Y103860D01*
X94496Y103965D01*
X94459Y104064D01*
X94415Y104157D01*
X94362Y104242D01*
X94302Y104321D01*
X94233Y104392D01*
X94156Y104458D01*
X95893Y104672D01*
X95833Y104590D01*
D02*
G37*
G36*
X123033Y99125D02*
X122958Y99195D01*
X122878Y99257D01*
X122792Y99312D01*
X122700Y99360D01*
X122603Y99400D01*
X122500Y99433D01*
X122392Y99459D01*
X122278Y99477D01*
X122159Y99488D01*
X122034Y99492D01*
Y100508D01*
X122159Y100512D01*
X122278Y100523D01*
X122392Y100541D01*
X122500Y100567D01*
X122603Y100600D01*
X122700Y100640D01*
X122792Y100688D01*
X122878Y100743D01*
X122958Y100805D01*
X123033Y100875D01*
Y99125D01*
D02*
G37*
G36*
Y89125D02*
X122958Y89195D01*
X122878Y89257D01*
X122792Y89312D01*
X122700Y89360D01*
X122603Y89400D01*
X122500Y89433D01*
X122392Y89459D01*
X122278Y89477D01*
X122159Y89488D01*
X122034Y89492D01*
Y90508D01*
X122159Y90512D01*
X122278Y90523D01*
X122392Y90541D01*
X122500Y90567D01*
X122603Y90600D01*
X122700Y90640D01*
X122792Y90688D01*
X122878Y90743D01*
X122958Y90805D01*
X123033Y90875D01*
Y89125D01*
D02*
G37*
D11*
X120754Y123904D02*
G03*
X113303Y124506I-3750J0D01*
G01*
X119680Y121277D02*
G03*
X120754Y123904I-2676J2627D01*
G01*
X113350Y123059D02*
G03*
X114205Y121408I3654J845D01*
G01*
X120632Y118781D02*
G03*
X119680Y121277I-3750J0D01*
G01*
X114205Y121408D02*
G03*
X113249Y119712I2676J-2627D01*
G01*
X112444Y121161D02*
G03*
X113350Y123059I-2795J2500D01*
G01*
X113249Y119712D02*
G03*
X112444Y121161I-3600J-1051D01*
G01*
X113254Y131404D02*
G03*
X113254Y131404I-3750J0D01*
G01*
X113303Y124506D02*
G03*
X106854Y121161I-3654J-845D01*
G01*
D02*
G03*
X113282Y117730I2795J-2500D01*
G01*
X105523Y123659D02*
G03*
X98978Y121159I-3750J0D01*
G01*
X104568Y121159D02*
G03*
X105523Y123659I-2795J2500D01*
G01*
X119792Y116416D02*
G03*
X120632Y118781I-2910J2365D01*
G01*
X113282Y117730D02*
G03*
X114094Y116273I3600J1051D01*
G01*
X120754Y113908D02*
G03*
X119792Y116416I-3750J0D01*
G01*
X125730Y103287D02*
G03*
X121686Y103008I-1804J-3287D01*
G01*
X121272Y103911D02*
G03*
X113899Y102942I-3750J0D01*
G01*
X114094Y116273D02*
G03*
X120754Y113908I2910J-2365D01*
G01*
X121162Y103008D02*
G03*
X121272Y103911I-3640J903D01*
G01*
X106028Y110410D02*
G03*
X98482Y112261I-4000J0D01*
G01*
X104985Y107716D02*
G03*
X106028Y110410I-2957J2694D01*
G01*
X113398Y105410D02*
G03*
X105916Y105776I-3750J0D01*
G01*
X113899Y102942D02*
G03*
X112656Y102357I626J-2942D01*
G01*
X113899Y102942D02*
G03*
X112656Y102357I626J-2942D01*
G01*
X105738Y105954D02*
G03*
X104985Y107716I-3710J-543D01*
G01*
X112656Y103171D02*
G03*
X113398Y105410I-3008J2239D01*
G01*
X103254Y131404D02*
G03*
X102000Y134203I-3750J0D01*
G01*
X97004Y128609D02*
G03*
X103254Y131404I2500J2795D01*
G01*
X92766Y128081D02*
G03*
X97004Y128609I1738J3323D01*
G01*
X98978Y121159D02*
G03*
X98302Y120078I2795J-2500D01*
G01*
X105523Y118659D02*
G03*
X104568Y121159I-3750J0D01*
G01*
X98255Y117362D02*
G03*
X105523Y118659I3519J1297D01*
G01*
X98465Y104241D02*
G03*
X101484Y101700I3563J1169D01*
G01*
X91811Y122990D02*
G03*
X92766Y125296I-2307J2307D01*
G01*
X98076Y103434D02*
G03*
X98465Y104241I-3161J2017D01*
G01*
X91806Y122985D02*
G03*
X92766Y125296I-2302J2311D01*
G01*
X98302Y120078D02*
G03*
X98255Y117362I-3519J-1297D01*
G01*
X98482Y112261D02*
G03*
X90978Y111158I-3567J-1810D01*
G01*
X86894Y119424D02*
G03*
X89200Y120379I0J3262D01*
G01*
X86894Y119424D02*
G03*
X89205Y120384I0J3262D01*
G01*
X90978Y109744D02*
G03*
X91958Y107757I3937J707D01*
G01*
X90978Y111158D02*
G03*
X84147Y107690I-3937J-707D01*
G01*
X91958Y107757D02*
G03*
X92060Y103019I2957J-2306D01*
G01*
X90894Y105435D02*
G03*
X90046Y107810I-3750J0D01*
G01*
D02*
G03*
X90978Y109744I-3005J2641D01*
G01*
X90152Y103196D02*
G03*
X90894Y105435I-3008J2239D01*
G01*
X84147Y107690D02*
G03*
X84136Y103196I2997J-2254D01*
G01*
X104604Y94604D02*
G03*
X99750Y95817I-3104J-2104D01*
G01*
X99750D02*
G03*
X98076Y96249I-1750J-3317D01*
G01*
X93175Y90667D02*
G03*
X94561Y91005I0J3008D01*
G01*
X93175Y90667D02*
G03*
X94561Y91005I0J3008D01*
G01*
X65900Y100330D02*
G03*
X59650Y103125I-3750J0D01*
G01*
X65624Y98918D02*
G03*
X65900Y100330I-3474J1412D01*
G01*
X89665Y96683D02*
G03*
X90152Y98323I-2521J1640D01*
G01*
X89665Y96683D02*
G03*
X90152Y98323I-2521J1640D01*
G01*
X124005Y76251D02*
G03*
X125730Y76713I-79J3749D01*
G01*
X120250Y69000D02*
G03*
X119276Y71522I-3750J0D01*
G01*
X113978Y66224D02*
G03*
X120250Y69000I2522J2776D01*
G01*
X120754Y58908D02*
G03*
X114209Y56408I-3750J0D01*
G01*
X119799D02*
G03*
X120754Y58908I-2795J2500D01*
G01*
X110500Y63992D02*
G03*
X112627Y64873I0J3008D01*
G01*
X110500Y63992D02*
G03*
X112631Y64877I0J3008D01*
G01*
X120754Y53908D02*
G03*
X119799Y56408I-3750J0D01*
G01*
X118369Y50415D02*
G03*
X120754Y53908I-1365J3493D01*
G01*
X125250Y46500D02*
G03*
X119015Y49308I-3750J0D01*
G01*
X124295Y44000D02*
G03*
X125250Y46500I-2795J2500D01*
G01*
X119015Y49308D02*
G03*
X118369Y50415I-3514J-1308D01*
G01*
X125250Y41500D02*
G03*
X124295Y44000I-3750J0D01*
G01*
X124165Y38862D02*
G03*
X125250Y41500I-2665J2638D01*
G01*
X114209Y56408D02*
G03*
X114135Y51493I2795J-2500D01*
G01*
X117985Y45192D02*
G03*
X118705Y44000I3514J1308D01*
G01*
D02*
G03*
X118835Y38862I2795J-2500D01*
G01*
X114135Y51493D02*
G03*
X117985Y45192I1365J-3493D01*
G01*
X99750Y89183D02*
G03*
X104604Y90396I1750J3317D01*
G01*
X94561Y91005D02*
G03*
X99750Y89183I3439J1495D01*
G01*
X102829Y85462D02*
G03*
X99064Y86631I-2829J-2462D01*
G01*
D02*
G03*
X93421Y84621I-2063J-3131D01*
G01*
X93421Y84621D02*
G03*
X87549Y82458I-2221J-3021D01*
G01*
D02*
G03*
X85405Y80068I1451J-3458D01*
G01*
X84028Y81445D02*
G03*
X81901Y82326I-2127J-2127D01*
G01*
X84031Y81441D02*
G03*
X81901Y82326I-2131J-2123D01*
G01*
X76298Y90667D02*
G03*
X75500Y90357I952J-3627D01*
G01*
X81000Y87040D02*
G03*
X78202Y90667I-3750J0D01*
G01*
X75500Y90357D02*
G03*
X74702Y90667I-1750J-3317D01*
G01*
X64048Y88040D02*
G03*
X66179Y88925I0J3008D01*
G01*
X64048Y88040D02*
G03*
X66175Y88921I0J3008D01*
G01*
X75500Y83723D02*
G03*
X81000Y87040I1750J3317D01*
G01*
X78318Y82326D02*
G03*
X76191Y81445I0J-3008D01*
G01*
X78318Y82326D02*
G03*
X76187Y81441I0J-3008D01*
G01*
X72798Y90667D02*
G03*
X75500Y83723I952J-3627D01*
G01*
X75123Y80377D02*
G03*
X74305Y78861I2127J-2127D01*
G01*
X75127Y80381D02*
G03*
X74305Y78861I2123J-2131D01*
G01*
X91687Y61813D02*
G03*
X94433Y63992I-687J3687D01*
G01*
X91008Y60261D02*
G03*
X91687Y61813I-3008J2239D01*
G01*
X90127Y51873D02*
G03*
X91008Y54000I-2127J2127D01*
G01*
X90123Y51869D02*
G03*
X91008Y54000I-2123J2131D01*
G01*
X79404Y73040D02*
G03*
X77027Y69095I1346J-3500D01*
G01*
X95750Y44500D02*
G03*
X95750Y44500I-3750J0D01*
G01*
X85790Y44880D02*
G03*
X85146Y46982I-3750J0D01*
G01*
X78654Y46492D02*
G03*
X85790Y44880I3386J-1612D01*
G01*
X77027Y69095D02*
G03*
X76312Y68566I1412J-2656D01*
G01*
X77027Y69095D02*
G03*
X76308Y68562I1412J-2656D01*
G01*
X74305Y78861D02*
G03*
X79000Y73223I2945J-2321D01*
G01*
X71627Y63881D02*
G03*
X70742Y61750I2123J-2131D01*
G01*
X71623Y63877D02*
G03*
X70742Y61750I2127J-2127D01*
G01*
Y61279D02*
G03*
X70250Y60386I3008J-2239D01*
G01*
X70250Y57694D02*
G03*
X75500Y55723I3500J1346D01*
G01*
X70250Y60386D02*
G03*
X70250Y57694I-3500J-1346D01*
G01*
X75500Y55723D02*
G03*
X80615Y57386I1750J3317D01*
G01*
X59650Y103125D02*
G03*
X54911Y103338I-2500J-2795D01*
G01*
X44427Y119424D02*
G03*
X51925Y119305I3748J-119D01*
G01*
X47363Y96727D02*
G03*
X46482Y94600I2127J-2127D01*
G01*
X52498Y90617D02*
G03*
X57995Y87448I3747J147D01*
G01*
D02*
G03*
X62322Y88040I1750J3317D01*
G01*
X53964Y93741D02*
G03*
X52498Y90912I2281J-2976D01*
G01*
X47367Y96731D02*
G03*
X46482Y94600I2123J-2131D01*
G01*
X52258Y76322D02*
G03*
X56500Y80040I492J3718D01*
G01*
X60000Y59040D02*
G03*
X56492Y62782I-3750J0D01*
G01*
X52163Y83744D02*
G03*
X52498Y85123I-2673J1379D01*
G01*
X52163Y83744D02*
G03*
X52498Y85123I-2673J1379D01*
G01*
X56500Y80040D02*
G03*
X52163Y83744I-3750J0D01*
G01*
X44161Y70014D02*
G03*
X46242Y69276I2239J3008D01*
G01*
X56492Y62782D02*
G03*
X52258Y66258I-3742J-242D01*
G01*
X46242Y60868D02*
G03*
X47127Y58738I3008J0D01*
G01*
X46242Y60868D02*
G03*
X47123Y58741I3008J0D01*
G01*
X40127Y106400D02*
G03*
X41004Y108900I-3122J2500D01*
G01*
X40127Y111400D02*
G03*
X41004Y113900I-3122J2500D01*
G01*
Y103900D02*
G03*
X40127Y106400I-4000J0D01*
G01*
X41004Y108900D02*
G03*
X40127Y111400I-4000J0D01*
G01*
X43603Y103338D02*
G03*
X41476Y102457I0J-3008D01*
G01*
X43603Y103338D02*
G03*
X41472Y102453I0J-3008D01*
G01*
X38877Y99858D02*
G03*
X37992Y97727I2123J-2131D01*
G01*
X38873Y99854D02*
G03*
X37992Y97727I2127J-2127D01*
G01*
X33912Y101362D02*
G03*
X41004Y103900I3092J2538D01*
G01*
Y113900D02*
G03*
X33912Y116438I-4000J0D01*
G01*
X40075Y70899D02*
G03*
X42205Y70014I2131J2123D01*
G01*
X40078Y70895D02*
G03*
X42205Y70014I2127J2127D01*
G01*
X37992Y74227D02*
G03*
X38873Y72101I3008J0D01*
G01*
X37992Y74227D02*
G03*
X38877Y72097I3008J0D01*
G01*
X32957Y61453D02*
G03*
X33912Y63760I-2307J2307D01*
G01*
X32952Y61449D02*
G03*
X33912Y63760I-2302J2311D01*
G01*
X27990Y57838D02*
G03*
X30301Y58798I0J3262D01*
G01*
X27990Y57838D02*
G03*
X30297Y58793I0J3262D01*
G01*
X54011Y56032D02*
G03*
X60000Y59040I2239J3008D01*
G01*
X55121Y55008D02*
G03*
X52994Y54127I0J-3008D01*
G01*
X55121Y55008D02*
G03*
X52990Y54123I0J-3008D01*
G01*
X48948Y56917D02*
G03*
X51078Y56032I2131J2123D01*
G01*
X48951Y56913D02*
G03*
X51078Y56032I2127J2127D01*
G01*
X47841Y48974D02*
G03*
X46956Y46843I2123J-2131D01*
G01*
X47837Y48970D02*
G03*
X46956Y46843I2127J-2127D01*
G01*
X54127Y18526D02*
G03*
X55008Y20653I-2127J2127D01*
G01*
X54123Y18522D02*
G03*
X55008Y20653I-2123J2131D01*
G01*
X57209Y5554D02*
G03*
X58050Y7920I-2909J2367D01*
G01*
X45556Y19503D02*
G03*
X52061Y16460I2795J-2500D01*
G01*
X58050Y7920D02*
G03*
X52732Y11326I-3750J0D01*
G01*
X51750Y1683D02*
G03*
X57250Y5000I1750J3317D01*
G01*
X52732Y11326D02*
G03*
X47274Y7575I-1732J-3326D01*
G01*
Y7575D02*
G03*
X51750Y1683I2726J-2575D01*
G01*
X15563Y56500D02*
G03*
X22437Y56500I3437J1500D01*
G01*
X19250Y46500D02*
G03*
X13500Y49672I-3750J0D01*
G01*
X17148Y43132D02*
G03*
X19250Y46500I-1648J3368D01*
G01*
X46956Y25484D02*
G03*
X45556Y19503I1395J-3481D01*
G01*
X44282Y17032D02*
G03*
X37999Y19797I-3750J0D01*
G01*
X37999D02*
G03*
X35319Y20746I-2498J-2797D01*
G01*
X13500Y49672D02*
G03*
X9852Y43132I-2000J-3172D01*
G01*
X35319Y20746D02*
G03*
X28251Y19096I-3318J-1746D01*
G01*
X9852Y43132D02*
G03*
X17148Y43132I3648J868D01*
G01*
X41530Y13417D02*
G03*
X44282Y17032I-998J3615D01*
G01*
X24500Y18964D02*
G03*
X20500Y18964I-2000J-3464D01*
G01*
X28251Y19096D02*
G03*
X24500Y18964I-1751J-3596D01*
G01*
X41250Y0D02*
G03*
X40762Y1850I-3750J0D01*
G01*
X29473Y12824D02*
G03*
X34238Y12318I2687J2616D01*
G01*
X24500Y12036D02*
G03*
X29473Y12824I2000J3464D01*
G01*
X34238Y1850D02*
G03*
X33822Y-730I3262J-1850D01*
G01*
X20500Y18964D02*
G03*
X20500Y12036I-2000J-3464D01*
G01*
X20500D02*
G03*
X24500Y12036I2000J3464D01*
G01*
X113013Y132727D02*
X125730D01*
X113250Y131227D02*
X125730D01*
X111972Y134227D02*
X125730D01*
X119472Y126727D02*
X125730D01*
X112858Y129727D02*
X125730D01*
X120513Y125227D02*
X125730D01*
X120750Y123727D02*
X125730D01*
X120358Y122227D02*
X125730D01*
Y103287D02*
Y135730D01*
X120087Y120727D02*
X125730D01*
X112778D02*
X113676D01*
X102000Y135727D02*
X125730D01*
X102000Y135730D02*
X125730D01*
X111497Y128227D02*
X125730D01*
X101497D02*
X107511D01*
X103013Y132727D02*
X105995D01*
X102000Y134227D02*
X107036D01*
X103250Y131227D02*
X105758D01*
X102858Y129727D02*
X106150D01*
X111807Y126727D02*
X114536D01*
X103929D02*
X107491D01*
X104901Y120727D02*
X106520D01*
X105179Y125227D02*
X106242D01*
X105239Y122227D02*
X106184D01*
X120605Y119227D02*
X125730D01*
X120480Y117727D02*
X125730D01*
X119951Y116227D02*
X125730D01*
X120692Y113227D02*
X125730D01*
X120663Y114727D02*
X125730D01*
X120055Y111727D02*
X125730D01*
X119273Y107227D02*
X125730D01*
X120803Y105727D02*
X125730D01*
X117722Y110227D02*
X125730D01*
X121259Y104227D02*
X125730D01*
X113385Y105727D02*
X114241D01*
X112502Y116227D02*
X114057D01*
X105805Y111727D02*
X113953D01*
X104867Y113227D02*
X113316D01*
X111397Y108727D02*
X125730D01*
X106024Y110227D02*
X116286D01*
X104628Y116227D02*
X106796D01*
X105657Y108727D02*
X107899D01*
X112928Y107227D02*
X115771D01*
X105308D02*
X106368D01*
X112656Y102357D02*
Y103171D01*
X102000Y134203D02*
Y135730D01*
X92766Y126727D02*
X99618D01*
X92765Y125227D02*
X98367D01*
X96497Y128227D02*
X97511D01*
X92766Y125296D02*
Y128081D01*
X92364Y123727D02*
X98024D01*
X97795Y113227D02*
X99189D01*
X96263Y122227D02*
X98307D01*
X97530Y116227D02*
X98918D01*
X91048Y122227D02*
X93305D01*
X89921Y113227D02*
X92036D01*
X89548Y120727D02*
X91578D01*
X89205Y120384D02*
X91806Y122985D01*
X90438Y107227D02*
X91613D01*
X101484Y101700D02*
X102369Y100815D01*
X102377Y100807D02*
X104604Y98580D01*
X98076Y101227D02*
X101957D01*
X98076Y98227D02*
X104604D01*
X98076Y99727D02*
X103457D01*
X98076Y102727D02*
X99408D01*
X90152Y98323D02*
Y103196D01*
Y99727D02*
X92060D01*
X90152Y102727D02*
X92060D01*
X98076Y96249D02*
Y103434D01*
X104604Y94604D02*
Y98580D01*
X98076Y96727D02*
X104604D01*
X92060Y96814D02*
Y103019D01*
X93774Y90727D02*
X94695D01*
X65791Y101227D02*
X84136D01*
X90152D02*
X92060D01*
X65034Y102727D02*
X84136D01*
X83485Y98918D02*
X84136Y99569D01*
X65851Y99727D02*
X84136D01*
Y99569D02*
Y103196D01*
X65624Y98918D02*
X83485D01*
X90150Y98227D02*
X92060D01*
X89693Y96727D02*
X91973D01*
X89665Y96683D02*
X91929D01*
X78202Y90667D02*
X93175D01*
X74702D02*
X76298D01*
X67921D02*
X72798D01*
X123481Y75728D02*
X125730D01*
X121981Y74227D02*
X125730D01*
X120481Y72727D02*
X125730D01*
X120170Y68228D02*
X125730D01*
X119517Y71227D02*
X125730D01*
X119276Y71522D02*
X124005Y76251D01*
X120179Y69728D02*
X125730D01*
X119483Y66727D02*
X125730D01*
Y38862D02*
Y76713D01*
X112981Y65227D02*
X125730D01*
X120283Y60728D02*
X125730D01*
X118749Y62228D02*
X125730D01*
X120740Y59227D02*
X125730D01*
X110481Y78727D02*
X111669D01*
Y75923D02*
Y79915D01*
X104262Y72508D02*
X111669Y79915D01*
X108981Y77228D02*
X111669D01*
X108254Y72508D02*
X111669Y75923D01*
X107481Y75728D02*
X111474D01*
X105981Y74227D02*
X109973D01*
X104481Y72727D02*
X108474D01*
X104262Y72508D02*
X108254D01*
X112631Y64877D02*
X113978Y66224D01*
X94305Y63727D02*
X125730D01*
X92831Y62228D02*
X115259D01*
X91305Y60728D02*
X113725D01*
X94433Y63992D02*
X110500D01*
X91008Y59227D02*
X113268D01*
X120563Y57727D02*
X125730D01*
X120663Y54728D02*
X125730D01*
X119951Y56227D02*
X125730D01*
X121910Y50227D02*
X125730D01*
X120692Y53228D02*
X125730D01*
X120055Y51727D02*
X125730D01*
X118517Y50227D02*
X121090D01*
X124517Y48727D02*
X125730D01*
X124483Y44227D02*
X125730D01*
X124805Y39727D02*
X125730D01*
X124165Y38862D02*
X125730D01*
X91008Y57727D02*
X113445D01*
X91008Y56227D02*
X114057D01*
X91008Y54728D02*
X113345D01*
X89981Y51727D02*
X113953D01*
X90907Y53228D02*
X113316D01*
X88482Y50227D02*
X112483D01*
X94574Y47228D02*
X111830D01*
X86981Y48727D02*
X111821D01*
X95740Y44227D02*
X118517D01*
X65000Y38862D02*
X118835D01*
X95543Y45728D02*
X112517D01*
X95305Y42727D02*
X117957D01*
X93831Y41227D02*
X117760D01*
X103331Y89227D02*
X104604D01*
Y87237D02*
Y90396D01*
X101910Y86227D02*
X103594D01*
X80936Y87727D02*
X104604D01*
X80296Y89227D02*
X96169D01*
X80911Y86227D02*
X94426D01*
X102829Y85462D02*
X104604Y87237D01*
X80202Y84727D02*
X89131D01*
X84031Y81441D02*
X85405Y80068D01*
X83701Y81727D02*
X86426D01*
X66481Y89227D02*
X70704D01*
X61945Y87727D02*
X70064D01*
X66179Y88925D02*
X67921Y90667D01*
X62322Y88040D02*
X64048D01*
X78318Y82326D02*
X81901D01*
X75127Y80381D02*
X76187Y81441D01*
X91008Y54000D02*
Y60261D01*
X80992Y55746D02*
Y56761D01*
X80254Y55008D02*
X80992Y55746D01*
X79730Y56227D02*
X80992D01*
X85631Y47377D02*
X90123Y51869D01*
X85471Y47228D02*
X89426D01*
X85111Y42727D02*
X88695D01*
X82890Y41227D02*
X90169D01*
X85733Y44227D02*
X88260D01*
X85693Y45728D02*
X88457D01*
X71627Y63881D02*
X76308Y68562D01*
X68726Y62228D02*
X70780D01*
X59599Y60728D02*
X63401D01*
X69230Y56227D02*
X71270D01*
X59995Y59227D02*
X63005D01*
X59763Y57727D02*
X63237D01*
X65000Y-730D02*
Y38862D01*
X58730Y56227D02*
X64270D01*
X51923Y119424D02*
X86894D01*
X51924Y119227D02*
X91060D01*
X51577Y117727D02*
X91185D01*
X50317Y116227D02*
X92038D01*
X47367Y96731D02*
X47958Y97322D01*
X44848D02*
X47958D01*
X52498Y86227D02*
X70089D01*
X52498Y87727D02*
X54045D01*
X46482Y86369D02*
Y94600D01*
X52498Y85123D02*
Y90617D01*
Y90912D02*
Y93354D01*
X40947Y113227D02*
X84162D01*
X41000Y108727D02*
X83432D01*
X40918Y114727D02*
X113345D01*
X40991Y104227D02*
X83594D01*
X40637Y107227D02*
X83849D01*
X40777Y110227D02*
X83047D01*
X40363Y111727D02*
X83250D01*
X43603Y103338D02*
X54911D01*
X40562Y105727D02*
X83405D01*
X44254Y96727D02*
X47363D01*
X44008Y95227D02*
X46548D01*
X44008Y92227D02*
X46482D01*
X44008Y93727D02*
X46482D01*
X44008Y89227D02*
X46482D01*
X44008Y90727D02*
X46482D01*
X44349Y84236D02*
X46482Y86369D01*
X44008Y87727D02*
X46482D01*
X56099Y81727D02*
X76517D01*
X56495Y80227D02*
X74983D01*
X54725Y83227D02*
X87822D01*
X56263Y78727D02*
X74204D01*
X52258Y74227D02*
X74298D01*
X52472Y84727D02*
X70798D01*
X55230Y77228D02*
X73564D01*
X52258Y75728D02*
X73589D01*
X52258Y71227D02*
X77401D01*
X52258Y69728D02*
X77005D01*
X52258Y72727D02*
X78775D01*
X55365Y65227D02*
X72973D01*
X52258Y66727D02*
X74474D01*
X56307Y63727D02*
X71483D01*
X52258Y66258D02*
Y76322D01*
X58225Y62228D02*
X64774D01*
X44008Y86227D02*
X46340D01*
X52258Y68228D02*
X75974D01*
X33912D02*
X46242D01*
X33912Y66727D02*
X46242D01*
X33912Y63727D02*
X46242D01*
X47127Y58738D02*
X48948Y56917D01*
X26000Y57727D02*
X48137D01*
X33530Y62228D02*
X46242D01*
X32231Y60728D02*
X46245D01*
X30731Y59227D02*
X46729D01*
X34972Y119424D02*
X44427D01*
X38166Y117727D02*
X44773D01*
X34775Y119227D02*
X44426D01*
X40257Y116227D02*
X46032D01*
X33912Y118364D02*
X34972Y119424D01*
X40828Y102727D02*
X41786D01*
X44008Y83830D02*
Y96482D01*
X44848Y97322D01*
X38877Y99858D02*
X41472Y102453D01*
X37992Y74227D02*
Y97727D01*
X5000Y135730D02*
X14471D01*
X5000Y135727D02*
X14468D01*
X5000Y126259D02*
X14471Y135730D01*
X5000Y132727D02*
X11468D01*
X5000Y134227D02*
X12968D01*
X5000Y131227D02*
X9968D01*
X5000Y126259D02*
Y135730D01*
Y128227D02*
X6968D01*
X5000Y129727D02*
X8468D01*
X33912Y98227D02*
X38034D01*
X33912Y99727D02*
X38753D01*
X33912Y117727D02*
X35842D01*
X33912Y116438D02*
Y118364D01*
Y96727D02*
X37992D01*
X33912Y63760D02*
Y101362D01*
Y93727D02*
X37992D01*
X33912Y92227D02*
X37992D01*
X33912Y95227D02*
X37992D01*
X44008Y84727D02*
X44840D01*
X33912Y86227D02*
X37992D01*
X33912Y83227D02*
X37992D01*
X33912Y84727D02*
X37992D01*
X33912Y80227D02*
X37992D01*
X33912Y81727D02*
X37992D01*
X38877Y72097D02*
X40075Y70899D01*
X46242Y60868D02*
Y69276D01*
X42205Y70014D02*
X44161D01*
X33912Y77228D02*
X37992D01*
X33912Y78727D02*
X37992D01*
X33912Y72727D02*
X38393D01*
X33912Y71227D02*
X39746D01*
X33912Y74227D02*
X37992D01*
X33912Y65227D02*
X46242D01*
X33912Y69728D02*
X44609D01*
X33912Y89227D02*
X37992D01*
X33912Y90727D02*
X37992D01*
X33912Y75728D02*
X37992D01*
X33912Y87727D02*
X37992D01*
X30301Y58798D02*
X32952Y61449D01*
X26000Y57838D02*
X27990D01*
X22437Y56500D02*
X26000D01*
X5000D02*
X15563D01*
X56746Y46492D02*
X78654D01*
X55981Y45728D02*
X78387D01*
X55121Y55008D02*
X80254D01*
X55008Y41227D02*
X81190D01*
X55008Y42727D02*
X78969D01*
X55008Y44227D02*
X78347D01*
X55008Y44754D02*
X56746Y46492D01*
X55008Y38228D02*
X65000D01*
X55008Y36727D02*
X65000D01*
X55008Y39727D02*
X118195D01*
X55008Y33728D02*
X65000D01*
X55008Y35227D02*
X65000D01*
X55008Y32227D02*
X65000D01*
X55008Y20653D02*
Y44754D01*
Y29228D02*
X65000D01*
X55008Y30728D02*
X65000D01*
X51078Y56032D02*
X54011D01*
X20831Y54728D02*
X53852D01*
X5000Y53228D02*
X52094D01*
X22305Y56227D02*
X50012D01*
X15910Y50227D02*
X49094D01*
X5000Y51727D02*
X50594D01*
X47841Y48974D02*
X52990Y54123D01*
X18517Y48727D02*
X47619D01*
X46956Y25484D02*
Y46843D01*
X19179Y47228D02*
X46981D01*
X19170Y45728D02*
X46956D01*
X16025Y41227D02*
X46956D01*
X55008Y26228D02*
X65000D01*
X55008Y24728D02*
X65000D01*
X55008Y27728D02*
X65000D01*
X55008Y21728D02*
X65000D01*
X55008Y23228D02*
X65000D01*
X54978Y20228D02*
X65000D01*
X54311Y18728D02*
X65000D01*
X56067Y11228D02*
X65000D01*
X57586Y9728D02*
X65000D01*
X52829Y17228D02*
X65000D01*
X58037Y8228D02*
X65000D01*
X57855Y6728D02*
X65000D01*
X57243Y5228D02*
X65000D01*
X57028Y3728D02*
X65000D01*
X56025Y2228D02*
X65000D01*
X52061Y16460D02*
X54123Y18522D01*
X51877Y15728D02*
X65000D01*
X50872Y14228D02*
X65000D01*
X40841Y12728D02*
X65000D01*
X5000Y26228D02*
X46956D01*
X5000Y27728D02*
X46956D01*
X40762Y9728D02*
X47672D01*
X40762Y11228D02*
X49091D01*
X41179Y728D02*
X65000D01*
X41178Y-730D02*
X65000D01*
X40762Y8228D02*
X47257D01*
X40762Y2228D02*
X47475D01*
X26000Y56500D02*
Y57838D01*
X18483Y44227D02*
X46956D01*
X5000Y54728D02*
X17169D01*
X5000Y56227D02*
X15695D01*
X11910Y50227D02*
X15090D01*
X5000Y45728D02*
X7830D01*
X34574Y21728D02*
X44611D01*
X17027Y42727D02*
X46956D01*
X5000Y-730D02*
Y56500D01*
Y41227D02*
X10975D01*
X5000Y39727D02*
X46956D01*
X5000Y50227D02*
X11090D01*
X5000Y36727D02*
X46956D01*
X5000Y38228D02*
X46956D01*
X5000Y47228D02*
X7821D01*
X5000Y48727D02*
X8483D01*
X5000Y42727D02*
X9973D01*
X5000Y44227D02*
X8517D01*
X5000Y33728D02*
X46956D01*
X5000Y35227D02*
X46956D01*
X5000Y30728D02*
X46956D01*
X5000Y32227D02*
X46956D01*
X5000Y24728D02*
X45774D01*
X5000Y29228D02*
X46956D01*
X5000Y21728D02*
X29427D01*
X5000Y23228D02*
X44806D01*
X42494Y20228D02*
X45048D01*
X43877Y18728D02*
X45021D01*
X44048Y15728D02*
X44825D01*
X43021Y14228D02*
X45829D01*
X37411Y20228D02*
X38570D01*
X40762Y12649D02*
X41530Y13417D01*
X40762Y6728D02*
X46672D01*
X40762Y5228D02*
X46257D01*
X40762Y1850D02*
Y12649D01*
Y3728D02*
X46472D01*
X34238Y1850D02*
Y12318D01*
X5000Y20228D02*
X28457D01*
X5000Y18728D02*
X16137D01*
X5000Y11228D02*
X34238D01*
X5000Y15728D02*
X14506D01*
X5000Y17228D02*
X14892D01*
X5000Y12728D02*
X15617D01*
X5000Y14228D02*
X14708D01*
X5000Y8228D02*
X34238D01*
X5000Y9728D02*
X34238D01*
X5000Y5228D02*
X34238D01*
X5000Y6728D02*
X34238D01*
X5000Y2228D02*
X34238D01*
X5000Y3728D02*
X34238D01*
X5000Y-730D02*
X33822D01*
X5000Y728D02*
X33821D01*
D13*
X55500Y49500D02*
X83500D01*
X88000Y54000D01*
Y62500D01*
X88284Y62216D01*
X55121Y52000D02*
X81500D01*
X84000Y54500D01*
Y59000D01*
X49964Y46843D02*
X55121Y52000D01*
X49964Y24018D02*
Y46843D01*
X48351Y22003D02*
Y22405D01*
X49964Y24018D01*
X52000Y46000D02*
X55500Y49500D01*
X48351Y17003D02*
X52000Y20653D01*
Y46000D01*
X102028Y105410D02*
X104500Y102938D01*
X107612Y99826D01*
Y85991D02*
Y99826D01*
X97693Y76072D02*
X107612Y85991D01*
X77250Y78250D02*
X78318Y79318D01*
X81901D01*
X85147Y76072D02*
X97693D01*
X81901Y79318D02*
X85147Y76072D01*
X98536Y74036D02*
X109648Y85148D01*
X83254Y74036D02*
X98536D01*
X99500Y72000D02*
X112442Y84942D01*
X89555Y72000D02*
X99500D01*
X83994Y66439D02*
X89555Y72000D01*
X80750Y76540D02*
X83254Y74036D01*
X91000Y69500D02*
X109500D01*
X85500Y64000D02*
X91000Y69500D01*
X109500D02*
X114677Y74677D01*
Y89179D01*
X12725Y67775D02*
X17110Y63390D01*
X11100Y67775D02*
X12725D01*
X17110Y63390D02*
X26690D01*
X6975Y99525D02*
X11100D01*
X5500Y101000D02*
X6975Y99525D01*
X5500Y101000D02*
Y122505D01*
X17361Y134366D01*
X65612Y127512D02*
X69504Y131404D01*
X33172Y125476D02*
X82953D01*
X73750Y59040D02*
Y61750D01*
X18720Y127512D02*
X65612D01*
X82953Y125476D02*
X84604Y127127D01*
X28360Y120664D02*
X33172Y125476D01*
X18716Y127508D02*
X18720Y127512D01*
X77250Y59040D02*
X77335Y59125D01*
X77250Y59040D02*
Y62371D01*
X91000Y65500D02*
X92500Y67000D01*
X78439Y66439D02*
X83994D01*
X73750Y61750D02*
X78439Y66439D01*
X78879Y64000D02*
X85500D01*
X77250Y62371D02*
X78879Y64000D01*
X77250Y76540D02*
Y78250D01*
X123500Y80000D02*
X123926D01*
X110500Y67000D02*
X123500Y80000D01*
X92500Y67000D02*
X110500D01*
X112442Y84942D02*
Y97917D01*
X109648Y85148D02*
Y105410D01*
X95068Y95568D02*
Y105385D01*
X93175Y93675D02*
X95068Y95568D01*
X66675Y93675D02*
X93175D01*
X42205Y73022D02*
X46400D01*
X46472Y76641D02*
X46570Y76543D01*
X46472Y76641D02*
Y82105D01*
X46400Y73022D02*
X46570D01*
X49250Y60868D02*
X51078Y59040D01*
X49250Y60868D02*
Y80040D01*
X26690Y63390D02*
X28360Y65060D01*
Y120664D01*
X64910Y95910D02*
X84731D01*
X63000Y94000D02*
X64910Y95910D01*
X59052Y94000D02*
X63000D01*
X64048Y91048D02*
X66675Y93675D01*
X60029Y91048D02*
X64048D01*
X56421Y91342D02*
X56967Y91888D01*
X56245Y91166D02*
X56421Y91342D01*
Y90940D02*
Y91342D01*
X56967Y91915D02*
X59052Y94000D01*
X56967Y91888D02*
Y91915D01*
X56245Y90764D02*
Y91166D01*
X59745Y90764D02*
X60029Y91048D01*
X56245Y90764D02*
X56421Y90940D01*
X53053Y96749D02*
X61580D01*
X53032Y96727D02*
X53053Y96749D01*
X51617Y96727D02*
X53032D01*
X49490Y94600D02*
X51617Y96727D01*
X49490Y85123D02*
Y94600D01*
X46472Y82105D02*
X49490Y85123D01*
X43603Y100330D02*
X57150D01*
X41000Y97727D02*
X43603Y100330D01*
X41000Y74227D02*
Y97727D01*
Y74227D02*
X42205Y73022D01*
X51078Y59040D02*
X56250D01*
X49250Y80040D02*
X49345Y79945D01*
X84604Y127127D02*
Y131304D01*
X84504Y131404D02*
X84604Y131304D01*
X115498Y90000D02*
X123926D01*
X114677Y89179D02*
X115498Y90000D01*
X114525Y100000D02*
X123926D01*
X112442Y97917D02*
X114525Y100000D01*
X84731Y95910D02*
X87144Y98323D01*
Y105435D01*
X62150Y100330D02*
X62175Y100305D01*
Y97344D02*
Y100305D01*
X61580Y96749D02*
X62175Y97344D01*
X36593Y134432D02*
X56476D01*
X59504Y131404D01*
X36527Y134366D02*
X36593Y134432D01*
X17361Y134366D02*
X36527D01*
D15*
X40510Y17032D02*
X40532D01*
X40490Y17012D02*
X40510Y17032D01*
X14469Y61100D02*
X27990D01*
X11425D02*
X14469D01*
X11100Y61425D02*
X11425Y61100D01*
X37500Y0D02*
Y14000D01*
X40500Y17000D01*
X40500D01*
X33621Y122686D02*
X86894D01*
X30650Y119715D02*
X33621Y122686D01*
X86894D02*
X89504Y125296D01*
X27990Y61100D02*
X30650Y63760D01*
Y119715D01*
X89504Y125296D02*
Y131404D01*
D61*
X11100Y61425D02*
D03*
Y67775D02*
D03*
Y99525D02*
D03*
D62*
X117000Y40000D02*
D03*
X113000D02*
D03*
X37500Y0D02*
D03*
X48351Y22003D02*
D03*
X40532Y17032D02*
D03*
X48351Y17003D02*
D03*
X34500Y35500D02*
D03*
X52750Y76540D02*
D03*
X88000Y62500D02*
D03*
X48500Y13000D02*
D03*
X105000Y40000D02*
D03*
X109000D02*
D03*
X90039Y96850D02*
D03*
X44000Y9500D02*
D03*
X98500Y97000D02*
D03*
X59000Y0D02*
D03*
X64000D02*
D03*
Y4000D02*
D03*
X59000Y14000D02*
D03*
X73000Y44000D02*
D03*
X10500Y134500D02*
D03*
X7000Y131500D02*
D03*
X70250Y66040D02*
D03*
X42500Y44500D02*
D03*
Y41000D02*
D03*
X73750Y59040D02*
D03*
X77250D02*
D03*
X91000Y65500D02*
D03*
X84000Y59000D02*
D03*
X57000Y22000D02*
D03*
X94661Y123659D02*
D03*
X109500Y78000D02*
D03*
X105000Y73000D02*
D03*
X101000Y40000D02*
D03*
X97000D02*
D03*
X93000D02*
D03*
X89000D02*
D03*
X85000D02*
D03*
X81000D02*
D03*
X73000D02*
D03*
X77000D02*
D03*
X57000Y18000D02*
D03*
X77250Y76540D02*
D03*
X80750D02*
D03*
X59745Y90764D02*
D03*
X56245D02*
D03*
X63250Y69540D02*
D03*
X66750Y76540D02*
D03*
X63250Y73040D02*
D03*
X70250Y69540D02*
D03*
X70250Y73040D02*
D03*
X59750Y69540D02*
D03*
X63250Y80040D02*
D03*
X70250Y76540D02*
D03*
Y80040D02*
D03*
X56250Y66040D02*
D03*
X66750Y80040D02*
D03*
X66750Y73040D02*
D03*
X66750Y69540D02*
D03*
X63250Y76540D02*
D03*
X59750Y66040D02*
D03*
X49250Y80040D02*
D03*
X56250Y59040D02*
D03*
X46400Y73022D02*
D03*
Y76543D02*
D03*
X44877Y93726D02*
D03*
X44877Y86106D02*
D03*
X77250Y83540D02*
D03*
X59000Y9296D02*
D03*
Y5296D02*
D03*
X123926Y110000D02*
D03*
X89504Y131404D02*
D03*
X123926Y80000D02*
D03*
Y90000D02*
D03*
Y100000D02*
D03*
X109648Y105410D02*
D03*
X102028D02*
D03*
X94915Y105451D02*
D03*
X87144Y105435D02*
D03*
X62175Y111277D02*
D03*
X57984Y111125D02*
D03*
X62150Y100330D02*
D03*
X57150D02*
D03*
D63*
X16500Y3000D02*
D03*
X7000D02*
D03*
X11500D02*
D03*
X11505Y34999D02*
D03*
X7005D02*
D03*
X69504Y131404D02*
D03*
X84504Y131404D02*
D03*
X59504Y131404D02*
D03*
X18716Y127508D02*
D03*
D64*
X121000Y132000D02*
D03*
M02*
