M48
;Layer_Color=9474304
;FILE_FORMAT=4:4
METRIC,TZ
;TYPE=PLATED
T1F00S00C0.1500
T2F00S00C0.2000
T3F00S00C0.2200
%
T01
X7000Y3000
X11500
X16500
X18500Y15500
X22500
X26500
X32160Y15440
X32000Y19000
X35501Y17001
X40532Y17032
X48351Y17003
X48500Y13000
X51000Y8000
X54300Y7920
X53500Y5000
X50000
X59000Y5296
Y9296
Y14000
X57000Y18000
Y22000
X48351Y22003
X44000Y9500
X37500Y0
X59000
X64000
Y4000
X73000Y40000
Y44000
X77000Y40000
X81000
X85000
X89000
X93000
X97000
X101000
X105000
X109000
X113000
X117000
X121500Y41500
Y46500
X115500Y48000
X117004Y53908
Y58908
X116500Y69000
X105000Y73000
X109500Y78000
X100000Y83000
X97000Y83500
X91200Y81600
X89000Y79000
X80750Y76540
X77250
X70250
Y80040
X66750
Y76540
X66750Y73040
X63250Y73040
Y69540
X66750
X70250Y69540
Y66040
X70250Y73040
X63250Y76540
X63250Y80040
X52750
X52750Y76540
X46400Y76543
Y73022
X49250Y80040
X44877Y86106
X44877Y93726
X56245Y90764
X59745
X62150Y100330
X57150
X57984Y111125
X62175Y111277
X48175Y119305
X49504Y131404
X54504
X59504
X64504
X69504
X74504
X79504Y131404
X84504
X89504
X94504
X99504
X109504
X109649Y123661
X109649Y118661
X116882Y118781
X117004Y113908
X117004Y123904
X101773Y123659
X101773Y118659
X94784Y118781
X94661Y123659
X94915Y110451
Y105451
X102028Y105410
Y110410
X109648Y105410
X117522Y103911
X123926Y100000
Y110000
Y90000
Y80000
X101500Y92500
X98000
X98500Y97000
X90039Y96850
X87144Y105435
X87041Y110451
X77250Y87040
X77250Y83540
X73750Y87040
X80750Y69540
X84000Y59000
X77250Y59040
X73750
X66750Y59040
X56250
Y66040
X59750Y66040
Y69540
X52750Y62540
X42500Y44500
Y41000
X34500Y35500
X11505Y34999
X7005
X13500Y44000
X15500Y46500
X11500
X19000Y58000
X37004Y103900
Y108900
Y113900
X18716Y127508
X10500Y134500
X7000Y131500
X88000Y62500
X91000Y65500
X92000Y44500
X82040Y44880
T02
X121000Y132000
T03
X11100Y61425
Y67775
Y74125
Y80475
Y86825
Y93175
Y99525
Y105875
Y112225
Y118575
X22900Y112225
Y105875
Y99525
Y93175
Y86825
Y80475
Y74125
Y67775
M30
