G04*
G04 #@! TF.GenerationSoftware,Altium Limited,Altium Designer,19.1.9 (167)*
G04*
G04 Layer_Color=255*
%FSLAX44Y44*%
%MOMM*%
G71*
G01*
G75*
%ADD19R,0.3000X0.2500*%
%ADD20C,0.1000*%
%ADD21P,0.6788X4X180.0*%
%ADD22R,0.2500X0.3000*%
%ADD23R,0.5400X0.5657*%
%ADD24R,1.7000X1.0000*%
%ADD25R,1.2000X0.5000*%
%ADD26R,0.3240X0.3684*%
%ADD27P,0.6788X4X270.0*%
%ADD28O,1.0000X0.5000*%
%ADD29R,0.2800X0.7450*%
%ADD30R,0.7450X0.2800*%
%ADD31C,0.2120*%
%ADD32R,0.3048X0.2500*%
%ADD33R,1.5000X1.6000*%
%ADD34R,0.6000X0.7500*%
%ADD35R,0.2500X0.3048*%
%ADD55R,0.3684X0.3240*%
%ADD61O,0.5500X0.3500*%
D19*
X121501Y41499D02*
D03*
Y46499D02*
D03*
X106001Y78999D02*
D03*
Y83999D02*
D03*
X109649Y118661D02*
D03*
X109649Y123661D02*
D03*
X109001Y58909D02*
D03*
Y53909D02*
D03*
X101773Y123659D02*
D03*
X101773Y118659D02*
D03*
X87144Y105435D02*
D03*
Y110435D02*
D03*
X94999Y46501D02*
D03*
Y41501D02*
D03*
X78540Y46320D02*
D03*
Y41320D02*
D03*
X102031Y46499D02*
D03*
Y41499D02*
D03*
X88001Y46499D02*
D03*
Y41499D02*
D03*
X108999Y41501D02*
D03*
Y46501D02*
D03*
X39001Y79735D02*
D03*
Y84735D02*
D03*
X38999Y92728D02*
D03*
Y97728D02*
D03*
X117004Y53908D02*
D03*
Y58908D02*
D03*
X94915Y105451D02*
D03*
Y110451D02*
D03*
X109648Y105410D02*
D03*
Y110410D02*
D03*
X102028Y105410D02*
D03*
Y110410D02*
D03*
X39000Y71727D02*
D03*
Y66727D02*
D03*
X102029Y53928D02*
D03*
Y58928D02*
D03*
X94999Y53928D02*
D03*
Y58928D02*
D03*
X114000Y84000D02*
D03*
Y79000D02*
D03*
X35999Y124501D02*
D03*
Y129501D02*
D03*
X94661Y123659D02*
D03*
Y118659D02*
D03*
D20*
X91200Y91400D02*
D03*
X97800D02*
D03*
Y81600D02*
D03*
X91200D02*
D03*
X48900Y6700D02*
D03*
Y13300D02*
D03*
X39100D02*
D03*
Y6700D02*
D03*
D21*
X94500Y86500D02*
D03*
D22*
X102500Y67500D02*
D03*
X97500D02*
D03*
X27499Y6999D02*
D03*
X32499D02*
D03*
X90039Y96850D02*
D03*
X85039D02*
D03*
X40501Y22501D02*
D03*
X35501D02*
D03*
X38000Y53228D02*
D03*
X33000D02*
D03*
X92500Y75500D02*
D03*
X97500D02*
D03*
X103500Y97000D02*
D03*
X98500D02*
D03*
X63249Y32500D02*
D03*
X58249D02*
D03*
D23*
X113500Y23000D02*
D03*
Y31656D02*
D03*
D24*
X9505Y3000D02*
D03*
Y35000D02*
D03*
D25*
X22500Y23001D02*
D03*
Y15000D02*
D03*
D26*
X63250Y46000D02*
D03*
Y40514D02*
D03*
Y24500D02*
D03*
X63250Y19014D02*
D03*
D27*
X44000Y10000D02*
D03*
D28*
X123926Y70000D02*
D03*
Y80000D02*
D03*
Y90000D02*
D03*
Y100000D02*
D03*
Y110000D02*
D03*
D29*
X67150Y100330D02*
D03*
X62150D02*
D03*
X57150D02*
D03*
Y123280D02*
D03*
X62150D02*
D03*
X67150D02*
D03*
D30*
X48175Y104305D02*
D03*
Y109305D02*
D03*
Y114305D02*
D03*
Y119305D02*
D03*
X76125Y119305D02*
D03*
Y114305D02*
D03*
X76125Y109305D02*
D03*
X76125Y104305D02*
D03*
D31*
X80750Y87040D02*
D03*
X80750Y83540D02*
D03*
X80750Y80040D02*
D03*
Y76540D02*
D03*
X80750Y73040D02*
D03*
X80750Y69540D02*
D03*
X80750Y66040D02*
D03*
Y62540D02*
D03*
Y59040D02*
D03*
Y55540D02*
D03*
X77250Y87040D02*
D03*
X77250Y83540D02*
D03*
Y80040D02*
D03*
X77250Y76540D02*
D03*
X77250Y73040D02*
D03*
X77250Y69540D02*
D03*
Y66040D02*
D03*
X77250Y62540D02*
D03*
X77250Y59040D02*
D03*
Y55540D02*
D03*
X73750Y87040D02*
D03*
X73750Y83540D02*
D03*
X73750Y80040D02*
D03*
X73750Y76540D02*
D03*
X73750Y73040D02*
D03*
X73750Y69540D02*
D03*
X73750Y66040D02*
D03*
X73750Y59040D02*
D03*
X73750Y55540D02*
D03*
X70250Y87040D02*
D03*
Y83540D02*
D03*
Y80040D02*
D03*
Y76540D02*
D03*
X70250Y73040D02*
D03*
X70250Y69540D02*
D03*
Y66040D02*
D03*
X70250Y62540D02*
D03*
X70250Y59040D02*
D03*
X70250Y55540D02*
D03*
X66750Y87040D02*
D03*
X66750Y83540D02*
D03*
X66750Y80040D02*
D03*
Y76540D02*
D03*
X66750Y73040D02*
D03*
X66750Y69540D02*
D03*
Y66040D02*
D03*
Y62540D02*
D03*
X66750Y59040D02*
D03*
Y55540D02*
D03*
X63250Y87040D02*
D03*
X63250Y83540D02*
D03*
X63250Y80040D02*
D03*
X63250Y76540D02*
D03*
X63250Y73040D02*
D03*
Y69540D02*
D03*
X63250Y66040D02*
D03*
X63250Y62540D02*
D03*
X63250Y59040D02*
D03*
Y55540D02*
D03*
X59750Y87040D02*
D03*
X59750Y83540D02*
D03*
X59750Y80040D02*
D03*
X59750Y76540D02*
D03*
X59750Y73040D02*
D03*
X59750Y69540D02*
D03*
Y66040D02*
D03*
X59750Y62540D02*
D03*
X56250Y87040D02*
D03*
Y83540D02*
D03*
Y80040D02*
D03*
X56250Y76540D02*
D03*
X56250Y73040D02*
D03*
X56250Y69540D02*
D03*
X56250Y66040D02*
D03*
Y59040D02*
D03*
Y55540D02*
D03*
X52750Y87040D02*
D03*
X52750Y83540D02*
D03*
X52750Y80040D02*
D03*
X52750Y76540D02*
D03*
X52750Y73040D02*
D03*
X52750Y69540D02*
D03*
X52750Y66040D02*
D03*
X52750Y62540D02*
D03*
X49250Y87040D02*
D03*
X49250Y83540D02*
D03*
X49250Y80040D02*
D03*
X49250Y76540D02*
D03*
X49250Y73040D02*
D03*
X49250Y69540D02*
D03*
X49250Y66040D02*
D03*
X49250Y62540D02*
D03*
X49250Y59040D02*
D03*
X49250Y55540D02*
D03*
D32*
X111000Y68000D02*
D03*
Y73000D02*
D03*
D33*
X118499Y7000D02*
D03*
X86499D02*
D03*
D34*
X36000Y32978D02*
D03*
Y43478D02*
D03*
X44000Y43478D02*
D03*
Y32978D02*
D03*
D35*
X32000Y60728D02*
D03*
X37000D02*
D03*
D55*
X11500Y45500D02*
D03*
X6014D02*
D03*
X32500Y500D02*
D03*
X27014D02*
D03*
X42500Y0D02*
D03*
X47986D02*
D03*
D61*
X22900Y105875D02*
D03*
Y99525D02*
D03*
Y86825D02*
D03*
Y93175D02*
D03*
Y67775D02*
D03*
X11100Y61425D02*
D03*
X22900Y74125D02*
D03*
Y80475D02*
D03*
Y112225D02*
D03*
X11100Y86825D02*
D03*
Y80475D02*
D03*
Y67775D02*
D03*
Y74125D02*
D03*
Y99525D02*
D03*
Y93175D02*
D03*
Y105875D02*
D03*
Y112225D02*
D03*
Y118575D02*
D03*
M02*
